# Blender v2.72 (sub 0) OBJ File: '2OG.blend'
# www.blender.org
o Cube
v -4.633192 0.000000 -0.059299
v -3.535338 0.000000 3.045568
v -0.524818 0.000000 4.375000
v 2.408509 0.000000 3.036990
v 3.437747 0.000000 0.137971
v 2.271277 0.000000 -2.580932
v -0.387587 0.000000 -3.798863
v -3.226567 0.000000 -2.838241
v -0.490510 0.000000 2.187896
v 1.088350 0.000000 3.631432
v 0.939447 0.000000 3.256197
v -0.058841 0.000000 2.188193
v -0.125863 0.000000 2.202075
v -1.988433 0.000000 1.527615
v -1.703041 0.000000 1.655835
v -1.442466 0.000000 1.779918
v -2.552728 0.000000 -0.013802
v -2.449325 0.000000 0.267454
v -2.350059 0.000000 0.536301
v -2.114300 0.000000 -0.940291
v -1.869923 0.000000 -1.456780
v -1.998142 0.000000 -1.187933
v -0.408267 0.000000 -1.978974
v -0.677114 0.000000 -1.879708
v -0.951706 0.000000 -1.787669
v 0.997355 0.000000 -1.331826
v 0.732644 0.000000 -1.447638
v 0.485133 0.000000 -1.565363
v 1.580633 0.000000 0.100746
v 1.365469 0.000000 -0.430154
v 1.481366 0.000000 -0.168101
v 1.522727 0.000000 0.282735
v 2.594634 0.000000 2.503432
v 2.718756 0.000000 2.171577
v 1.850738 0.000000 1.745176
v 2.072515 0.000000 1.528208
v 1.328488 0.000000 0.758714
v 1.417045 0.000000 0.555271
v 0.695315 0.000000 2.983343
v 0.912962 0.000000 1.186385
v 1.678039 0.000000 1.933962
v 0.948974 0.000000 1.148989
v 0.105864 0.000000 0.114355
v 0.160654 0.000000 0.137656
v -0.697894 0.000000 1.022275
v -0.224029 0.000000 1.034241
v -0.135121 0.000000 0.013252
v -0.234839 0.000000 -0.025527
v -0.428734 0.000000 -0.111395
v -0.425965 0.000000 0.417663
v -0.046483 0.000000 0.589400
v -1.043583 0.000000 0.119828
v -0.960484 0.000000 0.084927
v -0.754401 0.000000 0.001828
v -0.754401 0.312500 0.001828
v -0.960484 0.312500 0.084927
v -1.043583 0.312500 0.119828
v -0.046483 0.312500 0.589400
v -0.425965 0.312500 0.417663
v -0.428734 0.312500 -0.111395
v -0.234839 0.312500 -0.025527
v -0.135121 0.312500 0.013252
v -0.224029 0.312500 1.034241
v -0.697894 0.312500 1.022275
v 0.160654 0.312500 0.137656
v 0.105864 0.312500 0.114355
v -4.633192 0.312500 -0.059299
v -3.535338 0.312500 3.045568
v -0.524818 0.312500 4.375000
v 2.408509 0.312500 3.036990
v 3.437747 0.312500 0.137971
v 2.271277 0.312500 -2.580932
v -0.387587 0.312500 -3.798863
v -3.226567 0.312500 -2.838241
v -0.490510 0.312500 2.187896
v 1.088350 0.312500 3.631432
v 0.939447 0.312500 3.256197
v -0.058841 0.312500 2.188193
v -0.125863 0.312500 2.202075
v -1.988433 0.312500 1.527615
v -1.703041 0.312500 1.655835
v -1.442466 0.312500 1.779918
v -2.552728 0.312500 -0.013802
v -2.449325 0.312500 0.267454
v -2.350059 0.312500 0.536301
v -2.114300 0.312500 -0.940291
v -1.869923 0.312500 -1.456780
v -1.998142 0.312500 -1.187933
v -0.408267 0.312500 -1.978974
v -0.677114 0.312500 -1.879708
v -0.951706 0.312500 -1.787669
v 0.997355 0.312500 -1.331826
v 0.732644 0.312500 -1.447638
v 0.485133 0.312500 -1.565363
v 1.580633 0.312500 0.100746
v 1.365469 0.312500 -0.430154
v 1.481366 0.312500 -0.168101
v 1.522727 0.312500 0.282735
v 2.594634 0.312500 2.503432
v 2.718756 0.312500 2.171577
v 1.850738 0.312500 1.745176
v 2.072515 0.312500 1.528208
v 1.328488 0.312500 0.758714
v 1.417045 0.312500 0.555271
v 0.695315 0.312500 2.983343
v 0.912962 0.312500 1.186385
v 1.678039 0.312500 1.933962
v 0.948974 0.312500 1.148989
v -4.633192 0.562500 -0.059299
v -3.535338 0.562500 3.045568
v -0.524818 0.562500 4.375000
v 2.408509 0.562500 3.036990
v 3.437747 0.562500 0.137971
v 2.271277 0.562500 -2.580932
v -0.387587 0.562500 -3.798863
v -3.226567 0.562500 -2.838241
v -0.490510 0.562500 2.187896
v 1.088350 0.562500 3.631432
v 0.939447 0.562500 3.256197
v -0.058841 0.562500 2.188193
v -0.125863 0.562500 2.202075
v -1.988433 0.562500 1.527615
v -1.703041 0.562500 1.655835
v -1.442466 0.562500 1.779918
v -2.552728 0.562500 -0.013802
v -2.449325 0.562500 0.267454
v -2.350059 0.562500 0.536301
v -2.114300 0.562500 -0.940291
v -1.869923 0.562500 -1.456780
v -1.998142 0.562500 -1.187933
v -0.408267 0.562500 -1.978974
v -0.677114 0.562500 -1.879708
v -0.951706 0.562500 -1.787669
v 0.997355 0.562500 -1.331826
v 0.732644 0.562500 -1.447638
v 0.485133 0.562500 -1.565363
v 1.580633 0.562500 0.100746
v 1.365469 0.562500 -0.430154
v 1.481366 0.562500 -0.168101
v 1.522727 0.562500 0.282735
v 2.594634 0.562500 2.503432
v 2.718756 0.562500 2.171577
v 1.850738 0.562500 1.745176
v 2.072515 0.562500 1.528208
v 1.328488 0.562500 0.758714
v 1.417045 0.562500 0.555271
v 0.695315 0.562500 2.983343
v 0.912962 0.562500 1.186385
v 1.678039 0.562500 1.933962
v 0.948974 0.562500 1.148989
v -0.754401 0.562500 0.001828
v -0.960484 0.562500 0.084927
v -1.043583 0.562500 0.119828
v -0.046483 0.562500 0.589400
v -0.425965 0.562500 0.417663
v -0.428734 0.562500 -0.111395
v -0.234839 0.562500 -0.025527
v -0.135121 0.562500 0.013252
v -0.224029 0.562500 1.034241
v -0.697894 0.562500 1.022275
v 0.160654 0.562500 0.137656
v 0.105864 0.562500 0.114355
vt 0.000000 0.000000
vt 0.902822 0.378963
vt 0.949146 0.312150
vt 0.949146 0.307072
vt 0.889482 0.337255
vt 0.888731 0.329393
vt 0.764730 0.280009
vt 0.841116 0.397986
vt 0.893438 0.397051
vt 0.782179 0.274946
vt 0.835957 0.330058
vt 0.816562 0.331184
vt 0.764759 0.445550
vt 0.787954 0.461849
vt 0.942515 0.461849
vt 0.815983 0.402823
vt 0.961658 0.288147
vt 0.945902 0.281370
vt 0.982752 0.340242
vt 0.815792 0.454191
vt 0.847997 0.397648
vt 0.822003 0.388427
vt -0.000050 0.673941
vt 0.141602 0.673941
vt 0.141602 0.633789
vt 0.051758 0.672787
vt 0.000000 0.672787
vt 0.000000 0.633789
vt 0.141602 0.670266
vt 0.000000 0.670266
vt 0.005859 0.633789
vt 0.005859 0.676418
vt 0.000000 0.676418
vt 0.051758 0.633789
vt 0.051758 0.673581
vt 0.000000 0.673581
vt 0.134815 0.673941
vt 0.134815 0.633789
vt 0.051758 0.707031
vt 0.000000 0.707031
vt 0.141602 0.706990
vt 0.134815 0.706990
vt 0.141602 0.707065
vt -0.000000 0.707065
vt 0.005859 0.707031
vt 0.783276 0.311431
vt 0.886704 0.400825
vt 0.861709 0.417322
vt 0.888798 0.430208
vt 0.889869 0.366433
vt 0.764730 0.482686
vt 0.942629 0.280797
vt 0.893478 0.397963
vt 0.986375 0.274946
vt 0.945736 0.395203
vt 0.900671 0.335497
vt 0.887033 0.334348
vt 0.855349 0.329608
vt 0.964733 0.445550
vt 0.921092 0.333130
vt 0.866090 0.333884
vt 0.850197 0.334178
vt 0.988663 0.355837
vt 0.887467 0.374085
vt 0.853235 0.481785
vt 0.874455 0.408556
vt 0.841331 0.477145
vt 0.818025 0.456180
vt 0.880951 0.391259
vt 0.973175 0.423417
vt 0.882960 0.385434
vt 0.875673 0.405352
vt 0.966955 0.437923
vt 0.869154 0.487257
vt 0.895003 0.483868
vt 0.821632 0.361133
vt 0.755024 0.375674
vt 0.879755 0.490182
vt 0.880223 0.355599
vt 0.776370 0.319984
vt 0.782739 0.303878
vt 0.909823 0.476613
vt 0.960883 0.453414
vt 0.789666 0.288004
vt 0.861147 0.258664
vt 0.845899 0.264978
vt 0.872787 0.339223
vt 0.931392 0.275240
vt 0.877100 0.252085
vt 0.994976 0.371085
vt 0.874981 0.343926
vt 0.755024 0.396688
vt 0.755973 0.400513
vn 0.000000 1.000000 0.000000
vn -0.918300 0.000000 -0.396000
vn 0.933800 0.000000 -0.357700
vn 0.362400 0.000000 -0.932000
vn 0.391400 0.000000 -0.920200
vn 0.909000 0.000000 0.416800
vn -0.404900 0.000000 0.914300
vn 0.387200 0.000000 0.922000
vn 0.025200 0.000000 -0.999700
vn -0.412300 0.000000 0.911000
vn -0.928800 0.000000 -0.370700
vn -0.939400 0.000000 0.342700
vn 0.952900 0.000000 0.303200
vn -0.944200 0.000000 -0.329400
vn 0.916900 0.000000 0.399100
vn 0.339000 0.000000 0.940800
vn -0.745200 0.000000 0.666800
vn -0.720300 0.000000 -0.693600
vn 0.404000 0.000000 -0.914800
vn -0.021900 0.000000 0.999800
vn 0.925800 0.000000 -0.378000
vn 0.705500 0.000000 -0.708700
vn -0.999900 0.000000 -0.015700
vn 0.729900 0.000000 0.683500
vn -0.420100 0.000000 0.907500
vn -0.409800 0.000000 0.912200
vn -0.936600 0.000000 -0.350300
vn -0.416500 0.000000 0.909200
vn -0.903900 0.000000 -0.427700
vn -0.202800 0.000000 -0.979200
vn -0.938600 0.000000 0.345100
vn 0.938100 0.000000 -0.346400
vn -0.919000 0.000000 0.394300
vn -0.410600 0.000000 -0.911800
vn -0.999900 0.000000 -0.011400
vn 0.892200 0.000000 0.451600
vn -0.713500 0.000000 0.700700
vn -0.942800 0.000000 -0.333300
vn -0.725600 0.000000 0.688200
vn 0.700100 0.000000 0.714000
vn 0.320500 0.000000 0.947200
vn 0.718900 0.000000 -0.695100
vn -0.929500 0.000000 0.368800
vn 0.346400 0.000000 0.938100
vn -0.393900 0.000000 0.919100
vn -0.020000 0.000000 0.999800
vn 0.942800 0.000000 -0.333400
vn 0.713800 0.000000 -0.700300
vn -0.418600 0.000000 -0.908200
vn -0.902600 0.000000 -0.430500
vn -0.717800 0.000000 -0.696300
vn 0.700400 0.000000 0.713800
vn -0.400800 0.000000 0.916200
vn 0.328400 0.000000 0.944500
vn -0.905400 0.000000 -0.424700
vn 0.317800 0.000000 0.948200
vn -0.429500 0.000000 0.903100
vn 0.914500 0.000000 -0.404500
vn 0.932400 0.000000 0.361500
vn -0.716900 0.000000 -0.697200
vn -0.429900 0.000000 0.902900
vn 0.038900 0.000000 -0.999200
vn 0.699300 0.000000 0.714800
vn -0.938100 0.000000 0.346400
vn 0.737800 0.000000 0.675000
vn 0.386900 0.000000 -0.922100
vn 0.374000 0.000000 0.927400
s off
f 33/1/1 35/1/1 41/1/1
f 36/1/1 35/1/1 33/1/1
f 35/1/1 36/1/1 37/1/1
f 39/2/1 12/3/1 13/4/1
f 15/5/1 14/6/1 2/7/1
f 18/5/1 17/6/1 1/7/1
f 17/8/1 20/9/1 1/10/1
f 24/5/1 23/6/1 7/7/1
f 27/5/1 26/6/1 6/7/1
f 31/11/1 29/12/1 5/13/1
f 34/14/1 5/15/1 36/16/1
f 50/1/1 48/1/1 49/1/1
f 21/17/1 22/18/1 25/19/1
f 40/20/1 51/21/1 46/22/1
f 59/1/2 61/1/2 48/1/2
f 52/1/3 57/1/3 64/1/3
f 61/1/4 62/1/4 47/1/4
f 66/1/5 65/1/5 44/1/5
f 65/1/6 58/1/6 51/1/6
f 48/1/7 61/1/7 60/1/7
f 53/1/8 56/1/8 57/1/8
f 45/1/9 64/1/9 63/1/9
f 58/1/10 59/1/10 50/1/10
f 63/1/11 58/1/11 51/1/11
f 80/23/12 85/24/12 19/25/12
f 95/26/13 98/27/13 32/28/13
f 4/1/14 70/1/14 99/1/14
f 104/26/15 103/27/15 37/28/15
f 25/25/16 91/29/16 87/30/16
f 11/1/17 77/1/17 105/1/17
f 40/1/18 106/1/18 108/1/18
f 2/1/19 68/1/19 69/1/19
f 83/1/20 67/1/20 1/1/20
f 92/23/21 96/24/21 30/25/21
f 36/1/22 102/1/22 100/1/22
f 3/1/23 69/1/23 75/1/23
f 41/1/24 107/1/24 105/1/24
f 28/25/25 94/29/25 89/30/25
f 81/26/26 80/27/26 14/28/26
f 33/1/27 99/1/27 100/1/27
f 6/1/28 72/1/28 73/1/28
f 83/23/29 86/24/29 20/25/29
f 13/31/30 79/32/30 78/33/30
f 84/26/31 83/27/31 17/28/31
f 97/26/32 95/27/32 29/28/32
f 5/1/33 71/1/33 72/1/33
f 10/1/34 76/1/34 70/1/34
f 89/1/35 73/1/35 7/1/35
f 8/1/36 74/1/36 67/1/36
f 87/1/37 74/1/37 8/1/37
f 34/1/38 100/1/38 71/1/38
f 39/1/39 105/1/39 78/1/39
f 6/1/40 72/1/40 92/1/40
f 7/1/41 73/1/41 74/1/41
f 37/1/42 103/1/42 102/1/42
f 10/1/43 76/1/43 77/1/43
f 23/34/44 89/35/44 90/36/44
f 75/23/45 82/37/45 16/38/45
f 5/1/46 71/1/46 95/1/46
f 1/1/47 67/1/47 68/1/47
f 35/1/48 101/1/48 99/1/48
f 3/1/49 69/1/49 76/1/49
f 88/26/50 87/27/50 21/28/50
f 12/1/51 78/1/51 106/1/51
f 80/1/52 68/1/52 2/1/52
f 26/34/53 92/35/53 93/36/53
f 49/1/54 60/1/54 55/1/54
f 102/1/22 144/1/22 142/1/22
f 122/1/52 110/1/52 68/1/52
f 86/1/55 128/1/55 130/1/55
f 71/1/46 113/1/46 137/1/46
f 74/1/36 116/1/36 109/1/36
f 130/39/50 129/40/50 87/27/50
f 103/1/42 145/1/42 144/1/42
f 123/39/26 122/40/26 80/27/26
f 90/1/56 132/1/56 133/1/56
f 134/40/21 138/41/21 96/24/21
f 69/1/49 111/1/49 118/1/49
f 131/1/35 115/1/35 73/1/35
f 67/1/47 109/1/47 110/1/47
f 146/39/15 145/40/15 103/27/15
f 93/1/57 135/1/57 136/1/57
f 117/40/45 124/42/45 82/37/45
f 139/39/32 137/40/32 95/27/32
f 69/1/23 111/1/23 117/1/23
f 89/35/44 131/39/44 132/40/44
f 68/1/19 110/1/19 111/1/19
f 105/1/39 147/1/39 120/1/39
f 125/1/20 109/1/20 67/1/20
f 96/1/58 138/1/58 139/1/58
f 137/39/13 140/40/13 98/27/13
f 76/1/34 118/1/34 112/1/34
f 91/29/16 133/43/16 129/44/16
f 71/1/33 113/1/33 114/1/33
f 78/1/51 120/1/51 148/1/51
f 126/39/31 125/40/31 83/27/31
f 98/1/59 140/1/59 146/1/59
f 99/1/27 141/1/27 142/1/27
f 76/1/43 118/1/43 119/1/43
f 72/1/40 114/1/40 134/1/40
f 73/1/41 115/1/41 116/1/41
f 107/1/24 149/1/24 147/1/24
f 122/40/12 127/41/12 85/24/12
f 150/1/60 145/1/60 103/1/60
f 100/1/38 142/1/38 113/1/38
f 77/1/17 119/1/17 147/1/17
f 124/1/61 123/1/61 81/1/61
f 92/35/53 134/39/53 135/40/53
f 70/1/14 112/1/14 141/1/14
f 75/1/62 117/1/62 121/1/62
f 125/40/29 128/41/29 86/24/29
f 144/1/63 143/1/63 101/1/63
f 101/1/48 143/1/48 141/1/48
f 127/1/64 126/1/64 84/1/64
f 79/32/30 121/45/30 120/40/30
f 94/29/25 136/43/25 131/44/25
f 72/1/28 114/1/28 115/1/28
f 106/1/18 148/1/18 150/1/18
f 101/1/65 143/1/65 149/1/65
f 129/1/37 116/1/37 74/1/37
f 66/1/5 162/1/5 161/1/5
f 157/1/4 158/1/4 62/1/4
f 154/1/10 155/1/10 59/1/10
f 57/1/3 153/1/3 160/1/3
f 159/1/11 154/1/11 58/1/11
f 60/1/54 156/1/54 151/1/54
f 61/1/7 157/1/7 156/1/7
f 155/1/2 157/1/2 61/1/2
f 65/1/6 161/1/6 154/1/6
f 56/1/8 152/1/8 153/1/8
f 64/1/9 160/1/9 159/1/9
f 66/1/66 62/1/66 158/1/66
f 152/1/67 56/1/67 55/1/67
f 35/1/1 42/1/1 41/1/1
f 41/1/1 39/1/1 11/1/1
f 4/1/1 33/1/1 41/1/1
f 34/1/1 36/1/1 33/1/1
f 11/1/1 4/1/1 41/1/1
f 11/1/1 10/1/1 4/1/1
f 39/2/1 3/46/1 11/47/1
f 3/46/1 10/48/1 11/47/1
f 42/1/1 40/1/1 41/1/1
f 35/1/1 37/1/1 42/1/1
f 9/49/1 16/50/1 3/51/1
f 39/2/1 13/4/1 9/52/1
f 14/49/1 19/50/1 2/51/1
f 3/46/1 39/2/1 9/52/1
f 22/53/1 8/54/1 20/9/1
f 16/50/1 15/5/1 2/7/1
f 16/50/1 2/7/1 3/51/1
f 18/5/1 1/7/1 19/50/1
f 19/50/1 1/7/1 2/51/1
f 22/53/1 21/55/1 8/54/1
f 21/49/1 25/50/1 8/51/1
f 20/9/1 8/54/1 1/10/1
f 23/49/1 28/50/1 7/51/1
f 45/1/1 50/1/1 52/1/1
f 25/50/1 24/5/1 7/7/1
f 25/50/1 7/7/1 8/51/1
f 29/56/1 32/57/1 5/15/1
f 28/50/1 27/5/1 6/7/1
f 28/50/1 6/7/1 7/51/1
f 30/58/1 31/11/1 5/13/1
f 6/59/1 26/60/1 30/58/1
f 6/59/1 30/58/1 5/13/1
f 5/15/1 32/57/1 36/16/1
f 51/1/1 50/1/1 46/1/1
f 38/61/1 36/16/1 32/57/1
f 38/61/1 37/62/1 36/16/1
f 53/1/1 50/1/1 54/1/1
f 24/63/1 25/19/1 49/64/1
f 50/1/1 53/1/1 52/1/1
f 38/65/1 44/66/1 37/67/1
f 50/1/1 49/1/1 54/1/1
f 50/1/1 45/1/1 46/1/1
f 51/21/1 40/20/1 42/68/1
f 47/69/1 28/70/1 48/71/1
f 44/66/1 51/21/1 42/68/1
f 43/72/1 44/66/1 27/73/1
f 44/66/1 32/74/1 31/75/1
f 45/76/1 9/77/1 46/22/1
f 38/65/1 32/74/1 44/66/1
f 44/66/1 42/68/1 37/67/1
f 32/74/1 29/78/1 31/75/1
f 28/70/1 49/64/1 48/71/1
f 25/19/1 22/18/1 54/79/1
f 27/73/1 47/69/1 43/72/1
f 50/1/2 59/1/2 48/1/2
f 16/80/1 45/76/1 15/81/1
f 44/66/1 30/82/1 26/83/1
f 15/81/1 45/76/1 14/84/1
f 18/85/1 19/86/1 52/87/1
f 19/86/1 14/84/1 52/87/1
f 47/69/1 27/73/1 28/70/1
f 52/87/1 20/88/1 17/89/1
f 49/64/1 28/70/1 24/63/1
f 23/90/1 24/63/1 28/70/1
f 44/66/1 31/75/1 30/82/1
f 52/87/1 53/91/1 20/88/1
f 18/85/1 52/87/1 17/89/1
f 20/88/1 53/91/1 22/18/1
f 46/22/1 13/92/1 12/93/1
f 25/19/1 54/79/1 49/64/1
f 9/77/1 13/92/1 46/22/1
f 22/18/1 53/91/1 54/79/1
f 45/76/1 52/87/1 14/84/1
f 16/80/1 9/77/1 45/76/1
f 44/66/1 26/83/1 27/73/1
f 12/93/1 40/20/1 46/22/1
f 45/1/3 52/1/3 64/1/3
f 48/1/4 61/1/4 47/1/4
f 43/1/5 66/1/5 44/1/5
f 44/1/6 65/1/6 51/1/6
f 49/1/7 48/1/7 60/1/7
f 52/1/8 53/1/8 57/1/8
f 46/1/9 45/1/9 63/1/9
f 51/1/10 58/1/10 50/1/10
f 46/1/11 63/1/11 51/1/11
f 14/28/12 80/23/12 19/25/12
f 29/34/13 95/26/13 32/28/13
f 33/1/14 4/1/14 99/1/14
f 38/34/15 104/26/15 37/28/15
f 21/28/16 25/25/16 87/30/16
f 39/1/17 11/1/17 105/1/17
f 42/1/18 40/1/18 108/1/18
f 3/1/19 2/1/19 69/1/19
f 17/1/20 83/1/20 1/1/20
f 26/28/21 92/23/21 30/25/21
f 34/1/22 36/1/22 100/1/22
f 9/1/23 3/1/23 75/1/23
f 39/1/24 41/1/24 105/1/24
f 23/28/25 28/25/25 89/30/25
f 15/34/26 81/26/26 14/28/26
f 34/1/27 33/1/27 100/1/27
f 7/1/28 6/1/28 73/1/28
f 17/28/29 83/23/29 20/25/29
f 12/28/30 13/31/30 78/33/30
f 18/34/31 84/26/31 17/28/31
f 31/34/32 97/26/32 29/28/32
f 6/1/33 5/1/33 72/1/33
f 4/1/34 10/1/34 70/1/34
f 23/1/35 89/1/35 7/1/35
f 1/1/36 8/1/36 67/1/36
f 21/1/37 87/1/37 8/1/37
f 5/1/38 34/1/38 71/1/38
f 12/1/39 39/1/39 78/1/39
f 26/1/40 6/1/40 92/1/40
f 8/1/41 7/1/41 74/1/41
f 36/1/42 37/1/42 102/1/42
f 11/1/43 10/1/43 77/1/43
f 24/28/44 23/34/44 90/36/44
f 9/28/45 75/23/45 16/38/45
f 29/1/46 5/1/46 95/1/46
f 2/1/47 1/1/47 68/1/47
f 33/1/48 35/1/48 99/1/48
f 10/1/49 3/1/49 76/1/49
f 22/34/50 88/26/50 21/28/50
f 40/1/51 12/1/51 106/1/51
f 14/1/52 80/1/52 2/1/52
f 27/28/53 26/34/53 93/36/53
f 54/1/54 49/1/54 55/1/54
f 100/1/22 102/1/22 142/1/22
f 80/1/52 122/1/52 68/1/52
f 88/1/55 86/1/55 130/1/55
f 95/1/46 71/1/46 137/1/46
f 67/1/36 74/1/36 109/1/36
f 88/26/50 130/39/50 87/27/50
f 102/1/42 103/1/42 144/1/42
f 81/26/26 123/39/26 80/27/26
f 91/1/56 90/1/56 133/1/56
f 92/23/21 134/40/21 96/24/21
f 76/1/49 69/1/49 118/1/49
f 89/1/35 131/1/35 73/1/35
f 68/1/47 67/1/47 110/1/47
f 104/26/15 146/39/15 103/27/15
f 94/1/57 93/1/57 136/1/57
f 75/23/45 117/40/45 82/37/45
f 97/26/32 139/39/32 95/27/32
f 75/1/23 69/1/23 117/1/23
f 90/36/44 89/35/44 132/40/44
f 69/1/19 68/1/19 111/1/19
f 78/1/39 105/1/39 120/1/39
f 83/1/20 125/1/20 67/1/20
f 97/1/58 96/1/58 139/1/58
f 95/26/13 137/39/13 98/27/13
f 70/1/34 76/1/34 112/1/34
f 87/30/16 91/29/16 129/44/16
f 72/1/33 71/1/33 114/1/33
f 106/1/51 78/1/51 148/1/51
f 84/26/31 126/39/31 83/27/31
f 104/1/59 98/1/59 146/1/59
f 100/1/27 99/1/27 142/1/27
f 77/1/43 76/1/43 119/1/43
f 92/1/40 72/1/40 134/1/40
f 74/1/41 73/1/41 116/1/41
f 105/1/24 107/1/24 147/1/24
f 80/23/12 122/40/12 85/24/12
f 108/1/60 150/1/60 103/1/60
f 71/1/38 100/1/38 113/1/38
f 105/1/17 77/1/17 147/1/17
f 82/1/61 124/1/61 81/1/61
f 93/36/53 92/35/53 135/40/53
f 99/1/14 70/1/14 141/1/14
f 79/1/62 75/1/62 121/1/62
f 83/23/29 125/40/29 86/24/29
f 102/1/63 144/1/63 101/1/63
f 99/1/48 101/1/48 141/1/48
f 85/1/64 127/1/64 84/1/64
f 78/33/30 79/32/30 120/40/30
f 89/30/25 94/29/25 131/44/25
f 73/1/28 72/1/28 115/1/28
f 108/1/18 106/1/18 150/1/18
f 107/1/65 101/1/65 149/1/65
f 87/1/37 129/1/37 74/1/37
f 65/1/5 66/1/5 161/1/5
f 61/1/4 157/1/4 62/1/4
f 58/1/10 154/1/10 59/1/10
f 64/1/3 57/1/3 160/1/3
f 63/1/11 159/1/11 58/1/11
f 55/1/54 60/1/54 151/1/54
f 60/1/7 61/1/7 156/1/7
f 59/1/2 155/1/2 61/1/2
f 58/1/6 65/1/6 154/1/6
f 57/1/8 56/1/8 153/1/8
f 63/1/9 64/1/9 159/1/9
f 162/1/66 66/1/66 158/1/66
f 151/1/67 152/1/67 55/1/67
