# Blender v2.72 (sub 0) OBJ File: '2OG.blend'
# www.blender.org
o Cube
v -4.633192 0.000000 -0.059299
v -3.535338 0.000000 3.045568
v -0.524818 0.000000 4.375000
v 2.408509 0.000000 3.036990
v 3.437747 0.000000 0.137971
v 2.271277 0.000000 -2.580932
v -0.387587 0.000000 -3.798863
v -3.226567 0.000000 -2.838241
v -0.490510 0.000000 2.187896
v 1.088350 0.000000 3.631432
v 0.939447 0.000000 3.256197
v -0.058841 0.000000 2.188193
v -0.125863 0.000000 2.202075
v -1.988433 0.000000 1.527615
v -1.703041 0.000000 1.655835
v -1.442466 0.000000 1.779918
v -2.552728 0.000000 -0.013802
v -2.449325 0.000000 0.267454
v -2.350059 0.000000 0.536301
v -2.114300 0.000000 -0.940291
v -1.869923 0.000000 -1.456780
v -1.998142 0.000000 -1.187933
v -0.408267 0.000000 -1.978974
v -0.677114 0.000000 -1.879708
v -0.951706 0.000000 -1.787669
v 0.997355 0.000000 -1.331826
v 0.732644 0.000000 -1.447638
v 0.485133 0.000000 -1.565363
v 1.580633 0.000000 0.100746
v 1.365469 0.000000 -0.430154
v 1.481366 0.000000 -0.168101
v 1.522727 0.000000 0.282735
v 2.594634 0.000000 2.503432
v 2.718756 0.000000 2.171577
v 1.850738 0.000000 1.745176
v 2.072515 0.000000 1.528208
v 1.328488 0.000000 0.758714
v 1.417045 0.000000 0.555271
v 0.695315 0.000000 2.983343
v 0.912962 0.000000 1.186385
v 1.678039 0.000000 1.933962
v 0.948974 0.000000 1.148989
v 0.105864 0.000000 0.114355
v 0.160654 0.000000 0.137656
v -0.697894 0.000000 1.022275
v -0.224029 0.000000 1.034241
v -0.135121 0.000000 0.013252
v -0.234839 0.000000 -0.025527
v -0.428734 0.000000 -0.111395
v -0.425965 0.000000 0.417663
v -0.046483 0.000000 0.589400
v -1.043583 0.000000 0.119828
v -0.960484 0.000000 0.084927
v -0.754401 0.000000 0.001828
v -0.754401 0.312500 0.001828
v -0.960484 0.312500 0.084927
v -1.043583 0.312500 0.119828
v -0.046483 0.312500 0.589400
v -0.425965 0.312500 0.417663
v -0.428734 0.312500 -0.111395
v -0.234839 0.312500 -0.025527
v -0.135121 0.312500 0.013252
v -0.224029 0.312500 1.034241
v -0.697894 0.312500 1.022275
v 0.160654 0.312500 0.137656
v 0.105864 0.312500 0.114355
v -4.633192 0.312500 -0.059299
v -3.535338 0.312500 3.045568
v -0.524818 0.312500 4.375000
v 2.408509 0.312500 3.036990
v 3.437747 0.312500 0.137971
v 2.271277 0.312500 -2.580932
v -0.387587 0.312500 -3.798863
v -3.226567 0.312500 -2.838241
v -0.490510 0.312500 2.187896
v 1.088350 0.312500 3.631432
v 0.939447 0.312500 3.256197
v -0.058841 0.312500 2.188193
v -0.125863 0.312500 2.202075
v -1.988433 0.312500 1.527615
v -1.703041 0.312500 1.655835
v -1.442466 0.312500 1.779918
v -2.552728 0.312500 -0.013802
v -2.449325 0.312500 0.267454
v -2.350059 0.312500 0.536301
v -2.114300 0.312500 -0.940291
v -1.869923 0.312500 -1.456780
v -1.998142 0.312500 -1.187933
v -0.408267 0.312500 -1.978974
v -0.677114 0.312500 -1.879708
v -0.951706 0.312500 -1.787669
v 0.997355 0.312500 -1.331826
v 0.732644 0.312500 -1.447638
v 0.485133 0.312500 -1.565363
v 1.580633 0.312500 0.100746
v 1.365469 0.312500 -0.430154
v 1.481366 0.312500 -0.168101
v 1.522727 0.312500 0.282735
v 2.594634 0.312500 2.503432
v 2.718756 0.312500 2.171577
v 1.850738 0.312500 1.745176
v 2.072515 0.312500 1.528208
v 1.328488 0.312500 0.758714
v 1.417045 0.312500 0.555271
v 0.695315 0.312500 2.983343
v 0.912962 0.312500 1.186385
v 1.678039 0.312500 1.933962
v 0.948974 0.312500 1.148989
v -4.633192 0.562500 -0.059299
v -3.535338 0.562500 3.045568
v -0.524818 0.562500 4.375000
v 2.408509 0.562500 3.036990
v 3.437747 0.562500 0.137971
v 2.271277 0.562500 -2.580932
v -0.387587 0.562500 -3.798863
v -3.226567 0.562500 -2.838241
v -0.490510 0.562500 2.187896
v 1.088350 0.562500 3.631432
v 0.939447 0.562500 3.256197
v -0.058841 0.562500 2.188193
v -0.125863 0.562500 2.202075
v -1.988433 0.562500 1.527615
v -1.703041 0.562500 1.655835
v -1.442466 0.562500 1.779918
v -2.552728 0.562500 -0.013802
v -2.449325 0.562500 0.267454
v -2.350059 0.562500 0.536301
v -2.114300 0.562500 -0.940291
v -1.869923 0.562500 -1.456780
v -1.998142 0.562500 -1.187933
v -0.408267 0.562500 -1.978974
v -0.677114 0.562500 -1.879708
v -0.951706 0.562500 -1.787669
v 0.997355 0.562500 -1.331826
v 0.732644 0.562500 -1.447638
v 0.485133 0.562500 -1.565363
v 1.580633 0.562500 0.100746
v 1.365469 0.562500 -0.430154
v 1.481366 0.562500 -0.168101
v 1.522727 0.562500 0.282735
v 2.594634 0.562500 2.503432
v 2.718756 0.562500 2.171577
v 1.850738 0.562500 1.745176
v 2.072515 0.562500 1.528208
v 1.328488 0.562500 0.758714
v 1.417045 0.562500 0.555271
v 0.695315 0.562500 2.983343
v 0.912962 0.562500 1.186385
v 1.678039 0.562500 1.933962
v 0.948974 0.562500 1.148989
v -0.754401 0.562500 0.001828
v -0.960484 0.562500 0.084927
v -1.043583 0.562500 0.119828
v -0.046483 0.562500 0.589400
v -0.425965 0.562500 0.417663
v -0.428734 0.562500 -0.111395
v -0.234839 0.562500 -0.025527
v -0.135121 0.562500 0.013252
v -0.224029 0.562500 1.034241
v -0.697894 0.562500 1.022275
v 0.160654 0.562500 0.137656
v 0.105864 0.562500 0.114355
vn 0.000000 -1.000000 0.000000
vn 0.918300 0.000000 0.396000
vn 0.933800 0.000000 -0.357700
vn -0.362400 0.000000 0.932000
vn -0.391400 0.000000 0.920200
vn -0.909000 0.000000 -0.416800
vn -0.404900 0.000000 0.914300
vn 0.387200 0.000000 0.922000
vn 0.025200 0.000000 -0.999700
vn 0.412300 0.000000 -0.911000
vn 0.928800 0.000000 0.370700
vn 0.939400 0.000000 -0.342700
vn -0.952900 0.000000 -0.303200
vn 0.944200 0.000000 0.329400
vn -0.916900 0.000000 -0.399100
vn -0.339000 0.000000 -0.940800
vn 0.745200 0.000000 -0.666800
vn 0.720300 0.000000 0.693600
vn -0.404000 0.000000 0.914800
vn -0.021900 0.000000 0.999800
vn -0.925800 0.000000 0.378000
vn -0.705500 0.000000 0.708700
vn 0.999900 0.000000 0.015700
vn -0.729900 0.000000 -0.683500
vn 0.420100 0.000000 -0.907500
vn 0.409800 0.000000 -0.912200
vn 0.936600 0.000000 0.350300
vn 0.416500 0.000000 -0.909200
vn 0.903900 0.000000 0.427700
vn 0.202800 0.000000 0.979200
vn 0.938600 0.000000 -0.345100
vn -0.938100 0.000000 0.346400
vn 0.919000 0.000000 -0.394300
vn 0.410600 0.000000 0.911800
vn -0.999900 0.000000 -0.011400
vn -0.892200 0.000000 -0.451600
vn -0.713500 0.000000 0.700700
vn 0.942800 0.000000 0.333300
vn 0.725600 0.000000 -0.688200
vn 0.700100 0.000000 0.714000
vn -0.320500 0.000000 -0.947200
vn -0.718900 0.000000 0.695100
vn 0.929500 0.000000 -0.368800
vn -0.346400 0.000000 -0.938100
vn 0.393900 0.000000 -0.919100
vn 0.020000 0.000000 -0.999800
vn -0.942800 0.000000 0.333400
vn -0.713800 0.000000 0.700300
vn 0.418600 0.000000 0.908200
vn 0.902600 0.000000 0.430500
vn 0.717800 0.000000 0.696300
vn 0.700400 0.000000 0.713800
vn 0.400800 0.000000 -0.916200
vn 0.328400 0.000000 0.944500
vn 0.905400 0.000000 0.424700
vn -0.317800 0.000000 -0.948200
vn 0.429500 0.000000 -0.903100
vn -0.914500 0.000000 0.404500
vn -0.932400 0.000000 -0.361500
vn 0.716900 0.000000 0.697200
vn 0.429900 0.000000 -0.902900
vn -0.038900 0.000000 0.999200
vn 0.699300 0.000000 0.714800
vn 0.938100 0.000000 -0.346400
vn -0.737800 0.000000 -0.675000
vn -0.386900 0.000000 0.922100
vn 0.374000 0.000000 0.927400
vt 0 0
s off
f 4/0/1 10/0/1 11/0/1
f 33/0/1 35/0/1 36/0/1
f 41/0/1 40/0/1 42/0/1
f 11/0/1 10/0/1 3/0/1
f 16/0/1 9/0/1 3/0/1
f 19/0/1 14/0/1 2/0/1
f 20/0/1 17/0/1 1/0/1
f 25/0/1 21/0/1 8/0/1
f 28/0/1 23/0/1 7/0/1
f 30/0/1 26/0/1 6/0/1
f 5/0/1 34/0/1 36/0/1
f 50/0/1 52/0/1 53/0/1
f 22/0/1 21/0/1 25/0/1
f 12/0/1 13/0/1 46/0/1
f 48/0/2 61/0/2 59/0/2
f 52/0/3 57/0/3 64/0/3
f 47/0/4 62/0/4 61/0/4
f 44/0/5 65/0/5 66/0/5
f 51/0/6 58/0/6 65/0/6
f 48/0/7 61/0/7 60/0/7
f 53/0/8 56/0/8 57/0/8
f 45/0/9 64/0/9 63/0/9
f 50/0/10 59/0/10 58/0/10
f 51/0/11 58/0/11 63/0/11
f 19/0/12 85/0/12 80/0/12
f 32/0/13 98/0/13 95/0/13
f 99/0/14 70/0/14 4/0/14
f 37/0/15 103/0/15 104/0/15
f 87/0/16 91/0/16 25/0/16
f 105/0/17 77/0/17 11/0/17
f 108/0/18 106/0/18 40/0/18
f 69/0/19 68/0/19 2/0/19
f 83/0/20 67/0/20 1/0/20
f 30/0/21 96/0/21 92/0/21
f 100/0/22 102/0/22 36/0/22
f 75/0/23 69/0/23 3/0/23
f 105/0/24 107/0/24 41/0/24
f 89/0/25 94/0/25 28/0/25
f 14/0/26 80/0/26 81/0/26
f 100/0/27 99/0/27 33/0/27
f 73/0/28 72/0/28 6/0/28
f 20/0/29 86/0/29 83/0/29
f 12/0/30 78/0/30 79/0/30
f 17/0/31 83/0/31 84/0/31
f 29/0/32 95/0/32 97/0/32
f 72/0/33 71/0/33 5/0/33
f 70/0/34 76/0/34 10/0/34
f 89/0/35 73/0/35 7/0/35
f 67/0/36 74/0/36 8/0/36
f 87/0/37 74/0/37 8/0/37
f 71/0/38 100/0/38 34/0/38
f 78/0/39 105/0/39 39/0/39
f 6/0/40 72/0/40 92/0/40
f 74/0/41 73/0/41 7/0/41
f 102/0/42 103/0/42 37/0/42
f 77/0/43 76/0/43 10/0/43
f 90/0/44 89/0/44 23/0/44
f 16/0/45 82/0/45 75/0/45
f 95/0/46 71/0/46 5/0/46
f 68/0/47 67/0/47 1/0/47
f 99/0/48 101/0/48 35/0/48
f 76/0/49 69/0/49 3/0/49
f 21/0/50 87/0/50 88/0/50
f 106/0/51 78/0/51 12/0/51
f 80/0/52 68/0/52 2/0/52
f 27/0/53 93/0/53 92/0/53
f 49/0/54 60/0/54 55/0/54
f 142/0/22 144/0/22 102/0/22
f 122/0/52 110/0/52 68/0/52
f 130/0/55 128/0/55 86/0/55
f 137/0/46 113/0/46 71/0/46
f 109/0/36 116/0/36 74/0/36
f 87/0/50 129/0/50 130/0/50
f 144/0/42 145/0/42 103/0/42
f 80/0/26 122/0/26 123/0/26
f 133/0/56 132/0/56 90/0/56
f 96/0/21 138/0/21 134/0/21
f 118/0/49 111/0/49 69/0/49
f 131/0/35 115/0/35 73/0/35
f 110/0/47 109/0/47 67/0/47
f 103/0/15 145/0/15 146/0/15
f 136/0/57 135/0/57 93/0/57
f 82/0/45 124/0/45 117/0/45
f 95/0/32 137/0/32 139/0/32
f 117/0/23 111/0/23 69/0/23
f 132/0/44 131/0/44 89/0/44
f 111/0/19 110/0/19 68/0/19
f 120/0/39 147/0/39 105/0/39
f 125/0/20 109/0/20 67/0/20
f 139/0/58 138/0/58 96/0/58
f 98/0/13 140/0/13 137/0/13
f 112/0/34 118/0/34 76/0/34
f 129/0/16 133/0/16 91/0/16
f 114/0/33 113/0/33 71/0/33
f 148/0/51 120/0/51 78/0/51
f 83/0/31 125/0/31 126/0/31
f 146/0/59 140/0/59 98/0/59
f 142/0/27 141/0/27 99/0/27
f 119/0/43 118/0/43 76/0/43
f 72/0/40 114/0/40 134/0/40
f 116/0/41 115/0/41 73/0/41
f 147/0/24 149/0/24 107/0/24
f 85/0/12 127/0/12 122/0/12
f 103/0/60 145/0/60 150/0/60
f 113/0/38 142/0/38 100/0/38
f 147/0/17 119/0/17 77/0/17
f 81/0/61 123/0/61 124/0/61
f 135/0/53 134/0/53 92/0/53
f 141/0/14 112/0/14 70/0/14
f 79/0/62 121/0/62 117/0/62
f 86/0/29 128/0/29 125/0/29
f 144/0/63 143/0/63 101/0/63
f 141/0/48 143/0/48 101/0/48
f 84/0/64 126/0/64 127/0/64
f 120/0/30 121/0/30 79/0/30
f 131/0/25 136/0/25 94/0/25
f 115/0/28 114/0/28 72/0/28
f 150/0/18 148/0/18 106/0/18
f 149/0/65 143/0/65 101/0/65
f 129/0/37 116/0/37 74/0/37
f 65/0/5 161/0/5 162/0/5
f 62/0/4 158/0/4 157/0/4
f 59/0/10 155/0/10 154/0/10
f 57/0/3 153/0/3 160/0/3
f 58/0/11 154/0/11 159/0/11
f 60/0/54 156/0/54 151/0/54
f 61/0/7 157/0/7 156/0/7
f 61/0/2 157/0/2 155/0/2
f 58/0/6 154/0/6 161/0/6
f 56/0/8 152/0/8 153/0/8
f 64/0/9 160/0/9 159/0/9
f 158/0/66 62/0/66 66/0/66
f 152/0/67 56/0/67 55/0/67
f 41/0/1 35/0/1 33/0/1
f 11/0/1 39/0/1 41/0/1
f 34/0/1 33/0/1 36/0/1
f 41/0/1 33/0/1 4/0/1
f 4/0/1 11/0/1 41/0/1
f 36/0/1 35/0/1 37/0/1
f 13/0/1 12/0/1 39/0/1
f 13/0/1 39/0/1 9/0/1
f 35/0/1 41/0/1 42/0/1
f 35/0/1 42/0/1 37/0/1
f 16/0/1 2/0/1 15/0/1
f 11/0/1 3/0/1 39/0/1
f 39/0/1 3/0/1 9/0/1
f 25/0/1 7/0/1 24/0/1
f 1/0/1 17/0/1 18/0/1
f 2/0/1 14/0/1 15/0/1
f 16/0/1 3/0/1 2/0/1
f 1/0/1 19/0/1 2/0/1
f 21/0/1 22/0/1 8/0/1
f 1/0/1 18/0/1 19/0/1
f 8/0/1 22/0/1 20/0/1
f 1/0/1 8/0/1 20/0/1
f 28/0/1 6/0/1 27/0/1
f 29/0/1 31/0/1 5/0/1
f 7/0/1 23/0/1 24/0/1
f 25/0/1 8/0/1 7/0/1
f 36/0/1 37/0/1 38/0/1
f 6/0/1 26/0/1 27/0/1
f 28/0/1 7/0/1 6/0/1
f 5/0/1 31/0/1 30/0/1
f 6/0/1 5/0/1 30/0/1
f 32/0/1 29/0/1 5/0/1
f 36/0/1 38/0/1 32/0/1
f 49/0/1 48/0/1 50/0/1
f 5/0/1 36/0/1 32/0/1
f 50/0/1 51/0/1 46/0/1
f 52/0/1 50/0/1 45/0/1
f 54/0/1 50/0/1 53/0/1
f 54/0/1 49/0/1 50/0/1
f 29/0/1 32/0/1 31/0/1
f 30/0/1 44/0/1 26/0/1
f 50/0/1 46/0/1 45/0/1
f 44/0/1 38/0/1 37/0/1
f 25/0/1 24/0/1 49/0/1
f 22/0/1 25/0/1 54/0/1
f 22/0/1 53/0/1 20/0/1
f 45/0/1 15/0/1 14/0/1
f 42/0/1 44/0/1 37/0/1
f 42/0/1 40/0/1 51/0/1
f 49/0/1 28/0/1 48/0/1
f 42/0/1 51/0/1 44/0/1
f 44/0/1 27/0/1 26/0/1
f 12/0/1 46/0/1 40/0/1
f 13/0/1 9/0/1 46/0/1
f 28/0/1 27/0/1 47/0/1
f 24/0/1 23/0/1 28/0/1
f 28/0/1 47/0/1 48/0/1
f 9/0/1 16/0/1 45/0/1
f 45/0/1 16/0/1 15/0/1
f 24/0/1 28/0/1 49/0/1
f 32/0/1 44/0/1 31/0/1
f 44/0/1 43/0/1 27/0/1
f 54/0/1 25/0/1 49/0/1
f 52/0/1 45/0/1 14/0/1
f 53/0/1 22/0/1 54/0/1
f 52/0/1 14/0/1 19/0/1
f 45/0/3 52/0/3 64/0/3
f 31/0/1 44/0/1 30/0/1
f 52/0/1 18/0/1 17/0/1
f 20/0/1 52/0/1 17/0/1
f 52/0/1 19/0/1 18/0/1
f 32/0/1 38/0/1 44/0/1
f 9/0/1 45/0/1 46/0/1
f 53/0/1 52/0/1 20/0/1
f 27/0/1 43/0/1 47/0/1
f 46/0/1 51/0/1 40/0/1
f 50/0/2 48/0/2 59/0/2
f 48/0/4 47/0/4 61/0/4
f 43/0/5 44/0/5 66/0/5
f 44/0/6 51/0/6 65/0/6
f 49/0/7 48/0/7 60/0/7
f 52/0/8 53/0/8 57/0/8
f 46/0/9 45/0/9 63/0/9
f 51/0/10 50/0/10 58/0/10
f 46/0/11 51/0/11 63/0/11
f 14/0/12 19/0/12 80/0/12
f 29/0/13 32/0/13 95/0/13
f 33/0/14 99/0/14 4/0/14
f 38/0/15 37/0/15 104/0/15
f 21/0/16 87/0/16 25/0/16
f 39/0/17 105/0/17 11/0/17
f 42/0/18 108/0/18 40/0/18
f 3/0/19 69/0/19 2/0/19
f 17/0/20 83/0/20 1/0/20
f 26/0/21 30/0/21 92/0/21
f 34/0/22 100/0/22 36/0/22
f 9/0/23 75/0/23 3/0/23
f 39/0/24 105/0/24 41/0/24
f 23/0/25 89/0/25 28/0/25
f 15/0/26 14/0/26 81/0/26
f 34/0/27 100/0/27 33/0/27
f 7/0/28 73/0/28 6/0/28
f 17/0/29 20/0/29 83/0/29
f 13/0/30 12/0/30 79/0/30
f 18/0/31 17/0/31 84/0/31
f 31/0/32 29/0/32 97/0/32
f 6/0/33 72/0/33 5/0/33
f 4/0/34 70/0/34 10/0/34
f 23/0/35 89/0/35 7/0/35
f 1/0/36 67/0/36 8/0/36
f 21/0/37 87/0/37 8/0/37
f 5/0/38 71/0/38 34/0/38
f 12/0/39 78/0/39 39/0/39
f 26/0/40 6/0/40 92/0/40
f 8/0/41 74/0/41 7/0/41
f 36/0/42 102/0/42 37/0/42
f 11/0/43 77/0/43 10/0/43
f 24/0/44 90/0/44 23/0/44
f 9/0/45 16/0/45 75/0/45
f 29/0/46 95/0/46 5/0/46
f 2/0/47 68/0/47 1/0/47
f 33/0/48 99/0/48 35/0/48
f 10/0/49 76/0/49 3/0/49
f 22/0/50 21/0/50 88/0/50
f 40/0/51 106/0/51 12/0/51
f 14/0/52 80/0/52 2/0/52
f 26/0/53 27/0/53 92/0/53
f 54/0/54 49/0/54 55/0/54
f 100/0/22 142/0/22 102/0/22
f 80/0/52 122/0/52 68/0/52
f 88/0/55 130/0/55 86/0/55
f 95/0/46 137/0/46 71/0/46
f 67/0/36 109/0/36 74/0/36
f 88/0/50 87/0/50 130/0/50
f 102/0/42 144/0/42 103/0/42
f 81/0/26 80/0/26 123/0/26
f 91/0/56 133/0/56 90/0/56
f 92/0/21 96/0/21 134/0/21
f 76/0/49 118/0/49 69/0/49
f 89/0/35 131/0/35 73/0/35
f 68/0/47 110/0/47 67/0/47
f 104/0/15 103/0/15 146/0/15
f 94/0/57 136/0/57 93/0/57
f 75/0/45 82/0/45 117/0/45
f 97/0/32 95/0/32 139/0/32
f 75/0/23 117/0/23 69/0/23
f 90/0/44 132/0/44 89/0/44
f 69/0/19 111/0/19 68/0/19
f 78/0/39 120/0/39 105/0/39
f 83/0/20 125/0/20 67/0/20
f 97/0/58 139/0/58 96/0/58
f 95/0/13 98/0/13 137/0/13
f 70/0/34 112/0/34 76/0/34
f 87/0/16 129/0/16 91/0/16
f 72/0/33 114/0/33 71/0/33
f 106/0/51 148/0/51 78/0/51
f 84/0/31 83/0/31 126/0/31
f 104/0/59 146/0/59 98/0/59
f 100/0/27 142/0/27 99/0/27
f 77/0/43 119/0/43 76/0/43
f 92/0/40 72/0/40 134/0/40
f 74/0/41 116/0/41 73/0/41
f 105/0/24 147/0/24 107/0/24
f 80/0/12 85/0/12 122/0/12
f 108/0/60 103/0/60 150/0/60
f 71/0/38 113/0/38 100/0/38
f 105/0/17 147/0/17 77/0/17
f 82/0/61 81/0/61 124/0/61
f 93/0/53 135/0/53 92/0/53
f 99/0/14 141/0/14 70/0/14
f 75/0/62 79/0/62 117/0/62
f 83/0/29 86/0/29 125/0/29
f 102/0/63 144/0/63 101/0/63
f 99/0/48 141/0/48 101/0/48
f 85/0/64 84/0/64 127/0/64
f 78/0/30 120/0/30 79/0/30
f 89/0/25 131/0/25 94/0/25
f 73/0/28 115/0/28 72/0/28
f 108/0/18 150/0/18 106/0/18
f 107/0/65 149/0/65 101/0/65
f 87/0/37 129/0/37 74/0/37
f 66/0/5 65/0/5 162/0/5
f 61/0/4 62/0/4 157/0/4
f 58/0/10 59/0/10 154/0/10
f 64/0/3 57/0/3 160/0/3
f 63/0/11 58/0/11 159/0/11
f 55/0/54 60/0/54 151/0/54
f 60/0/7 61/0/7 156/0/7
f 59/0/2 61/0/2 155/0/2
f 65/0/6 58/0/6 161/0/6
f 57/0/8 56/0/8 153/0/8
f 63/0/9 64/0/9 159/0/9
f 162/0/66 158/0/66 66/0/66
f 151/0/67 152/0/67 55/0/67
