# Blender v2.72 (sub 0) OBJ File: 'Person.blend'
# www.blender.org
o Cube.003
v -0.181597 -1.071028 -0.003145
v -0.187500 -0.746887 -0.003145
v -0.169445 -1.066105 -0.075715
v -0.163889 -1.368449 -0.003145
v -0.169445 -1.066105 0.069424
v -0.175000 -0.746887 0.071855
v -0.175000 -0.746887 -0.078145
v -0.152778 -1.348762 -0.068423
v -0.152778 -1.348762 0.062133
v -0.000000 -1.071028 -0.184742
v -0.000000 -0.746887 -0.190645
v 0.072569 -1.066105 -0.172590
v -0.000000 -1.368449 -0.167034
v -0.072570 -1.066105 -0.172590
v -0.075000 -0.746887 -0.178145
v 0.075000 -0.746887 -0.178145
v 0.065278 -1.348762 -0.155923
v -0.065278 -1.348762 -0.155923
v 0.181597 -1.071028 -0.003145
v 0.187500 -0.746887 -0.003145
v 0.169444 -1.066105 0.069424
v 0.163889 -1.368449 -0.003145
v 0.169444 -1.066105 -0.075715
v 0.175000 -0.746887 -0.078145
v 0.175000 -0.746887 0.071855
v 0.152778 -1.348762 0.062133
v 0.152778 -1.348762 -0.068423
v -0.000000 -1.071028 0.178452
v -0.000000 -0.746887 0.184355
v -0.072570 -1.066105 0.166299
v -0.000000 -1.368449 0.160744
v 0.072569 -1.066105 0.166299
v 0.075000 -0.746887 0.171855
v -0.075000 -0.746887 0.171855
v -0.065278 -1.348762 0.149633
v 0.065278 -1.348762 0.149633
v -0.000000 -1.795949 -0.003145
v -0.070139 -1.748137 -0.003145
v -0.000000 -1.748137 -0.073284
v 0.070139 -1.748137 -0.003145
v -0.000000 -1.748137 0.066994
v -0.065278 -1.703137 0.062133
v -0.065278 -1.703137 -0.068423
v 0.065278 -1.703137 -0.068423
v 0.065278 -1.703137 0.062133
v -0.000000 0.232801 -0.003145
v 0.070139 0.216863 -0.003145
v -0.000000 0.216863 -0.073284
v -0.070139 0.216863 -0.003145
v -0.000000 0.216863 0.066994
v 0.065278 0.201863 0.062133
v 0.065278 0.201863 -0.068423
v -0.065278 0.201863 -0.068423
v -0.065278 0.201863 0.062133
v -0.181597 -0.031340 -0.003145
v -0.163889 0.090301 -0.003145
v -0.169445 -0.032981 -0.075715
v -0.187500 -0.206887 -0.003145
v -0.169445 -0.032981 0.069424
v -0.152778 0.083738 0.062133
v -0.152778 0.083738 -0.068423
v -0.175000 -0.206887 -0.078145
v -0.175000 -0.206887 0.071855
v -0.000000 -0.031340 -0.184742
v -0.000000 0.090301 -0.167034
v 0.072569 -0.032981 -0.172590
v -0.000000 -0.206887 -0.190645
v -0.072570 -0.032981 -0.172590
v -0.065278 0.083738 -0.155923
v 0.065278 0.083738 -0.155923
v 0.075000 -0.206887 -0.178145
v -0.075000 -0.206887 -0.178145
v 0.181597 -0.031340 -0.003145
v 0.163889 0.090301 -0.003145
v 0.169444 -0.032981 0.069424
v 0.187500 -0.206887 -0.003145
v 0.169444 -0.032981 -0.075715
v 0.152778 0.083738 -0.068423
v 0.152778 0.083738 0.062133
v 0.175000 -0.206887 0.071855
v 0.175000 -0.206887 -0.078145
v -0.000000 -0.031340 0.178452
v -0.000000 0.090301 0.160744
v -0.072570 -0.032981 0.166299
v -0.000000 -0.206887 0.184355
v 0.072569 -0.032981 0.166299
v 0.065278 0.083738 0.149633
v -0.065278 0.083738 0.149633
v -0.075000 -0.206887 0.171855
v 0.075000 -0.206887 0.171855
v -0.137500 -0.206887 0.134355
v -0.133073 -0.034621 0.129928
v -0.119792 0.077176 0.116647
v -0.119792 0.157332 0.057272
v -0.128646 0.169285 -0.003145
v -0.119792 0.157332 -0.063562
v -0.137500 -0.746887 -0.140645
v -0.133073 -1.061184 -0.136218
v -0.119792 -1.329074 -0.122937
v -0.119792 -1.569543 -0.063562
v -0.128646 -1.605402 -0.003145
v -0.119792 -1.569543 0.057272
v -0.060417 0.157332 -0.122937
v -0.000000 0.169285 -0.131791
v 0.060417 0.157332 -0.122937
v 0.137500 -0.746887 -0.140645
v 0.133073 -1.061184 -0.136218
v 0.119792 -1.329074 -0.122937
v 0.060417 -1.569543 -0.122937
v -0.000000 -1.605402 -0.131791
v -0.060417 -1.569543 -0.122937
v 0.119792 0.157332 -0.063562
v 0.128646 0.169285 -0.003145
v 0.119792 0.157332 0.057272
v 0.137500 -0.746887 0.134355
v 0.133073 -1.061184 0.129928
v 0.119792 -1.329074 0.116647
v 0.119792 -1.569543 0.057272
v 0.128646 -1.605402 -0.003145
v 0.119792 -1.569543 -0.063562
v 0.060417 0.157332 0.116647
v -0.000000 0.169285 0.125501
v -0.060417 0.157332 0.116647
v -0.060417 -1.569543 0.116647
v -0.000000 -1.605402 0.125501
v 0.060417 -1.569543 0.116647
v -0.119792 -1.329074 0.116647
v -0.133073 -1.061184 0.129928
v -0.137500 -0.746887 0.134355
v -0.119792 0.077176 -0.122937
v -0.133073 -0.034621 -0.136218
v -0.137500 -0.206887 -0.140645
v 0.119792 0.077176 -0.122937
v 0.133073 -0.034621 -0.136218
v 0.137500 -0.206887 -0.140645
v 0.119792 0.077176 0.116647
v 0.133073 -0.034621 0.129928
v 0.137500 -0.206887 0.134355
v -0.175000 -0.443137 -0.078145
v -0.187500 -0.443137 -0.003145
v -0.175000 -0.443137 0.071855
v 0.075000 -0.443137 -0.178145
v -0.000000 -0.443137 -0.190645
v -0.075000 -0.443137 -0.178145
v 0.175000 -0.443137 0.071855
v 0.187500 -0.443137 -0.003145
v 0.175000 -0.443137 -0.078145
v -0.075000 -0.443137 0.171855
v -0.000000 -0.443137 0.184355
v 0.075000 -0.443137 0.171855
v -0.101852 -1.496887 0.098707
v -0.101852 -1.496887 -0.104997
v 0.101852 -1.496887 -0.104997
v 0.101852 -1.496887 0.098707
v -0.101852 0.133114 0.098707
v -0.101852 0.133114 -0.104997
v 0.101852 0.133114 -0.104997
v 0.101852 0.133114 0.098707
v -0.137500 -0.443137 0.134355
v -0.137500 -0.443137 -0.140645
v 0.137500 -0.443137 -0.140645
v 0.137500 -0.443137 0.134355
vt 0.132118 0.060552
vt 0.162536 0.060128
vt 0.163511 0.084081
vt 0.164565 0.106117
vt 0.134568 0.107974
vt 0.191357 0.060118
vt 0.191979 0.083291
vt 0.192654 0.104859
vt 0.133216 0.085371
vt 0.102306 0.087327
vt 0.101229 0.062465
vt 0.071822 0.089485
vt 0.104012 0.110321
vt 0.074094 0.113298
vt 0.101032 0.037843
vt 0.131287 0.035261
vt 0.097094 0.011132
vt 0.130483 0.007534
vt 0.070790 0.064190
vt 0.070899 0.039737
vt 0.071553 0.018580
vt 0.161399 0.036032
vt 0.190814 0.036886
vt 0.164126 0.009132
vt 0.190350 0.015602
vt 0.001146 0.060102
vt 0.038596 0.063106
vt 0.039045 0.091347
vt 0.041848 0.117668
vt 0.003194 0.124453
vt 0.498854 0.060102
vt 0.499945 0.093319
vt 0.460955 0.091347
vt 0.461404 0.063107
vt 0.428178 0.089486
vt 0.496806 0.124454
vt 0.458152 0.117669
vt 0.425906 0.113299
vt 0.459961 0.036135
vt 0.493437 0.028990
vt 0.452976 0.009501
vt 0.484610 0.000056
vt 0.429210 0.064191
vt 0.429101 0.039738
vt 0.428447 0.018581
vt 0.006562 0.028989
vt 0.040039 0.036134
vt 0.015390 0.000055
vt 0.047024 0.009500
vt 0.367882 0.060553
vt 0.398771 0.062466
vt 0.397694 0.087328
vt 0.395988 0.110322
vt 0.365432 0.107974
vt 0.366784 0.085372
vt 0.336489 0.084081
vt 0.337464 0.060128
vt 0.308021 0.083292
vt 0.335435 0.106118
vt 0.307346 0.104860
vt 0.338601 0.036033
vt 0.368714 0.035262
vt 0.335874 0.009133
vt 0.369517 0.007535
vt 0.308643 0.060119
vt 0.309187 0.036886
vt 0.309651 0.015603
vt 0.398968 0.037844
vt 0.402906 0.011133
vt 0.250000 0.057827
vt 0.279974 0.058726
vt 0.279724 0.082459
vt 0.279419 0.104272
vt 0.250000 0.104111
vt 0.250000 0.082079
vt 0.220276 0.082459
vt 0.220026 0.058726
vt 0.220580 0.104272
vt 0.220119 0.034752
vt 0.250000 0.032883
vt 0.216322 0.007982
vt 0.250000 0.005186
vt 0.279882 0.034753
vt 0.283679 0.007982
vt 0.178313 0.254147
vt 0.148133 0.250758
vt 0.153103 0.222560
vt 0.181701 0.223967
vt 0.156562 0.195649
vt 0.119815 0.247579
vt 0.126095 0.219965
vt 0.134966 0.199835
vt 0.209899 0.228937
vt 0.208493 0.257535
vt 0.236811 0.232397
vt 0.184881 0.195649
vt 0.212494 0.201929
vt 0.232625 0.210800
vt 0.203522 0.285733
vt 0.174924 0.284327
vt 0.200063 0.312645
vt 0.236811 0.260715
vt 0.230530 0.288328
vt 0.221660 0.308459
vt 0.146726 0.279356
vt 0.119815 0.275897
vt 0.171744 0.312645
vt 0.144131 0.306365
vt 0.124000 0.297494
vt 0.031172 0.243521
vt 0.044268 0.217589
vt 0.071833 0.226766
vt 0.055522 0.195649
vt 0.006886 0.233410
vt 0.020824 0.209947
vt 0.035227 0.195649
vt 0.097765 0.239862
vt 0.088588 0.267427
vt 0.119705 0.251116
vt 0.081944 0.202480
vt 0.105407 0.216418
vt 0.119705 0.230821
vt 0.075492 0.293359
vt 0.047927 0.284182
vt 0.064237 0.315299
vt 0.112874 0.277538
vt 0.098936 0.301001
vt 0.084533 0.315299
vt 0.021995 0.271086
vt 0.000055 0.259831
vt 0.037816 0.308468
vt 0.014353 0.294530
vt 0.000055 0.280127
vt 0.166385 0.136059
vt 0.167016 0.147891
vt 0.138179 0.150814
vt 0.172316 0.164592
vt 0.140012 0.170141
vt 0.193676 0.133703
vt 0.194127 0.145262
vt 0.194631 0.157607
vt 0.108989 0.153320
vt 0.107282 0.141300
vt 0.080938 0.156517
vt 0.078644 0.144479
vt 0.107159 0.170915
vt 0.083550 0.169019
vt 0.137077 0.138853
vt 0.105707 0.127974
vt 0.076437 0.131243
vt 0.135923 0.125480
vt 0.165589 0.123110
vt 0.193217 0.121309
vt 0.049343 0.152136
vt 0.052982 0.164756
vt 0.022413 0.178282
vt 0.062749 0.180121
vt 0.033815 0.195539
vt 0.477587 0.178283
vt 0.447018 0.164757
vt 0.450658 0.152137
vt 0.419063 0.156518
vt 0.421357 0.144480
vt 0.466186 0.195539
vt 0.437252 0.180122
vt 0.416450 0.169019
vt 0.484713 0.164786
vt 0.454353 0.137571
vt 0.423563 0.131244
vt 0.015288 0.164786
vt 0.009036 0.147969
vt 0.045647 0.137570
vt 0.392718 0.141301
vt 0.391012 0.153321
vt 0.361821 0.150815
vt 0.392841 0.170916
vt 0.359988 0.170142
vt 0.332984 0.147892
vt 0.333615 0.136059
vt 0.305873 0.145263
vt 0.306324 0.133704
vt 0.327684 0.164593
vt 0.305369 0.157608
vt 0.362923 0.138854
vt 0.334411 0.123111
vt 0.306783 0.121310
vt 0.364078 0.125481
vt 0.394293 0.127975
vt 0.279042 0.133958
vt 0.278713 0.145719
vt 0.250000 0.146134
vt 0.282574 0.162748
vt 0.250000 0.165432
vt 0.221286 0.145718
vt 0.220957 0.133958
vt 0.217425 0.162748
vt 0.250000 0.134329
vt 0.220756 0.121109
vt 0.250000 0.121208
vt 0.279244 0.121109
vt 0.000055 0.093319
vt 0.059880 0.255474
vt 0.490964 0.147970
vn -0.999200 -0.039800 0.000000
vn -0.936200 -0.040800 0.349100
vn -0.938300 -0.009400 0.345600
vn -0.938400 0.000000 0.345500
vn -1.000000 0.000000 0.000000
vn -0.706500 -0.041900 0.706500
vn -0.707100 -0.009700 0.707100
vn -0.707100 0.000000 0.707100
vn -0.999900 -0.009100 0.000000
vn -0.938300 -0.009400 -0.345600
vn -0.936200 -0.040800 -0.349100
vn -0.707100 -0.009700 -0.707100
vn -0.938400 0.000000 -0.345500
vn -0.707100 0.000000 -0.707100
vn -0.921800 -0.103500 -0.373700
vn -0.993700 -0.112300 0.000000
vn -0.846100 -0.230500 -0.480700
vn -0.953900 -0.300200 0.000000
vn -0.706500 -0.041900 -0.706500
vn -0.703700 -0.097700 -0.703700
vn -0.697400 -0.165000 -0.697400
vn -0.921800 -0.103500 0.373700
vn -0.703700 -0.097700 0.703700
vn -0.846100 -0.230500 0.480700
vn -0.697400 -0.165000 0.697400
vn 0.000000 -0.039800 -0.999200
vn -0.349100 -0.040800 -0.936200
vn -0.345600 -0.009400 -0.938300
vn -0.345500 0.000000 -0.938400
vn 0.000000 0.000000 -1.000000
vn 0.000000 -0.009100 -0.999900
vn 0.345600 -0.009400 -0.938300
vn 0.349100 -0.040800 -0.936200
vn 0.707100 -0.009700 -0.707100
vn 0.345500 0.000000 -0.938400
vn 0.707100 0.000000 -0.707100
vn 0.373700 -0.103500 -0.921800
vn 0.000000 -0.112300 -0.993700
vn 0.480700 -0.230500 -0.846100
vn 0.000000 -0.300200 -0.953900
vn 0.706500 -0.041900 -0.706500
vn 0.703700 -0.097700 -0.703700
vn 0.697400 -0.165000 -0.697400
vn -0.373700 -0.103500 -0.921800
vn -0.480700 -0.230500 -0.846100
vn 0.999200 -0.039800 0.000000
vn 0.936200 -0.040800 -0.349100
vn 0.938300 -0.009400 -0.345600
vn 0.938400 0.000000 -0.345500
vn 1.000000 0.000000 0.000000
vn 0.999900 -0.009100 0.000000
vn 0.938300 -0.009400 0.345600
vn 0.936200 -0.040800 0.349100
vn 0.707100 -0.009700 0.707100
vn 0.938400 0.000000 0.345500
vn 0.707100 0.000000 0.707100
vn 0.921800 -0.103500 0.373700
vn 0.993700 -0.112300 0.000000
vn 0.846100 -0.230500 0.480700
vn 0.953900 -0.300200 0.000000
vn 0.706500 -0.041900 0.706500
vn 0.703700 -0.097700 0.703700
vn 0.697400 -0.165000 0.697400
vn 0.921800 -0.103500 -0.373700
vn 0.846100 -0.230500 -0.480700
vn 0.000000 -0.039800 0.999200
vn 0.349100 -0.040800 0.936200
vn 0.345600 -0.009400 0.938300
vn 0.345500 0.000000 0.938400
vn 0.000000 0.000000 1.000000
vn 0.000000 -0.009100 0.999900
vn -0.345600 -0.009400 0.938300
vn -0.349100 -0.040800 0.936200
vn -0.345500 0.000000 0.938400
vn -0.373700 -0.103500 0.921800
vn 0.000000 -0.112300 0.993700
vn -0.480700 -0.230500 0.846100
vn 0.000000 -0.300200 0.953900
vn 0.373700 -0.103500 0.921800
vn 0.480700 -0.230500 0.846100
vn 0.000000 -1.000000 0.000000
vn 0.000000 -0.678200 0.734800
vn -0.630700 -0.452200 0.630700
vn -0.734800 -0.678200 0.000000
vn -0.630700 -0.452200 -0.630700
vn 0.000000 -0.678200 -0.734800
vn 0.630700 -0.452200 -0.630700
vn 0.734800 -0.678200 0.000000
vn 0.630700 -0.452200 0.630700
vn 0.000000 0.897100 0.441800
vn 0.417200 0.807400 0.417200
vn 0.441800 0.897100 0.000000
vn 0.733000 0.562900 0.381700
vn 0.000000 0.618500 0.785700
vn 0.381700 0.562900 0.733000
vn 0.627200 0.461600 0.627200
vn 0.417200 0.807400 -0.417200
vn 0.000000 0.897100 -0.441800
vn 0.381700 0.562900 -0.733000
vn 0.785700 0.618500 0.000000
vn 0.733000 0.562900 -0.381700
vn 0.627200 0.461600 -0.627200
vn -0.417200 0.807400 -0.417200
vn -0.441800 0.897100 0.000000
vn -0.733000 0.562900 -0.381700
vn 0.000000 0.618500 -0.785700
vn -0.381700 0.562900 -0.733000
vn -0.627200 0.461600 -0.627200
vn -0.417200 0.807400 0.417200
vn -0.381700 0.562900 0.733000
vn -0.785700 0.618500 0.000000
vn -0.733000 0.562900 0.381700
vn -0.627200 0.461600 0.627200
vn -0.932900 0.092700 0.347900
vn -0.892900 0.275500 0.356000
vn -0.958600 0.284800 0.000000
vn -0.703800 0.096400 0.703800
vn -0.680800 0.270300 0.680800
vn -0.892900 0.275500 -0.356000
vn -0.932900 0.092700 -0.347900
vn -0.680800 0.270300 -0.680800
vn -0.703800 0.096400 -0.703800
vn -0.996000 0.089400 0.000000
vn -0.938200 0.017200 -0.345700
vn -0.707000 0.017800 -0.707000
vn -0.999800 0.016800 0.000000
vn -0.938200 0.017200 0.345700
vn -0.707000 0.017800 0.707000
vn -0.347900 0.092700 -0.932900
vn -0.356000 0.275500 -0.892900
vn 0.000000 0.284800 -0.958600
vn 0.356000 0.275500 -0.892900
vn 0.347900 0.092700 -0.932900
vn 0.680800 0.270300 -0.680800
vn 0.703800 0.096400 -0.703800
vn 0.000000 0.089400 -0.996000
vn 0.345700 0.017200 -0.938200
vn 0.707000 0.017800 -0.707000
vn 0.000000 0.016800 -0.999800
vn -0.345700 0.017200 -0.938200
vn 0.932900 0.092700 -0.347900
vn 0.892900 0.275500 -0.356000
vn 0.958600 0.284800 0.000000
vn 0.892900 0.275500 0.356000
vn 0.932900 0.092700 0.347900
vn 0.680800 0.270300 0.680800
vn 0.703800 0.096400 0.703800
vn 0.996000 0.089400 0.000000
vn 0.938200 0.017200 0.345700
vn 0.707000 0.017800 0.707000
vn 0.999800 0.016800 0.000000
vn 0.938200 0.017200 -0.345700
vn 0.347900 0.092700 0.932900
vn 0.356000 0.275500 0.892900
vn 0.000000 0.284800 0.958600
vn -0.356000 0.275500 0.892900
vn -0.347900 0.092700 0.932900
vn 0.000000 0.089400 0.996000
vn -0.345700 0.017200 0.938200
vn 0.000000 0.016800 0.999800
vn 0.345700 0.017200 0.938200
vn 0.000000 1.000000 0.000000
s 1
f 1/1/1 5/2/2 6/3/3
f 6/3/3 141/4/4 140/5/5
f 5/2/2 128/6/6 129/7/7
f 129/7/7 159/8/8 141/4/4
f 1/1/1 2/9/9 7/10/10
f 3/11/11 7/10/10 97/12/12
f 140/5/5 139/13/13 7/10/10
f 139/13/13 160/14/14 97/12/12
f 3/11/11 8/15/15 4/16/16
f 8/15/15 100/17/17 101/18/18
f 98/19/19 99/20/20 8/15/15
f 99/20/20 152/21/21 100/17/17
f 4/16/16 9/22/22 5/2/2
f 9/22/22 127/23/23 128/6/6
f 101/18/18 102/24/24 9/22/22
f 102/24/24 151/25/25 127/23/23
f 10/26/26 14/27/27 15/28/28
f 15/28/28 144/29/29 143/30/30
f 14/27/27 98/19/19 97/12/12
f 97/12/12 160/14/14 144/29/29
f 10/31/26 11/32/31 16/33/32
f 12/34/33 16/33/32 106/35/34
f 143/36/30 142/37/35 16/33/32
f 142/37/35 161/38/36 106/35/34
f 12/34/33 17/39/37 13/40/38
f 17/39/37 109/41/39 110/42/40
f 107/43/41 108/44/42 17/39/37
f 108/44/42 153/45/43 109/41/39
f 13/46/38 18/47/44 14/27/27
f 18/47/44 99/20/20 98/19/19
f 110/48/40 111/49/45 18/47/44
f 111/49/45 152/21/21 99/20/20
f 19/50/46 23/51/47 24/52/48
f 24/52/48 147/53/49 146/54/50
f 23/51/47 107/43/41 106/35/34
f 106/35/34 161/38/36 147/53/49
f 19/50/46 20/55/51 25/56/52
f 21/57/53 25/56/52 115/58/54
f 146/54/50 145/59/55 25/56/52
f 145/59/55 162/60/56 115/58/54
f 21/57/53 26/61/57 22/62/58
f 26/61/57 118/63/59 119/64/60
f 116/65/61 117/66/62 26/61/57
f 117/66/62 154/67/63 118/63/59
f 22/62/58 27/68/64 23/51/47
f 27/68/64 108/44/42 107/43/41
f 119/64/60 120/69/65 27/68/64
f 120/69/65 153/45/43 108/44/42
f 28/70/66 32/71/67 33/72/68
f 33/72/68 150/73/69 149/74/70
f 32/71/67 116/65/61 115/58/54
f 115/58/54 162/60/56 150/73/69
f 28/70/66 29/75/71 34/76/72
f 30/77/73 34/76/72 129/7/7
f 149/74/70 148/78/74 34/76/72
f 148/78/74 159/8/8 129/7/7
f 30/77/73 35/79/75 31/80/76
f 35/79/75 124/81/77 125/82/78
f 128/6/6 127/23/23 35/79/75
f 127/23/23 151/25/25 124/81/77
f 31/80/76 36/83/79 32/71/67
f 36/83/79 117/66/62 116/65/61
f 125/82/78 126/84/80 36/83/79
f 126/84/80 154/67/63 117/66/62
f 37/85/81 41/86/82 42/87/83
f 38/88/84 42/87/83 102/89/24
f 41/86/82 125/90/78 124/91/77
f 42/87/83 124/91/77 151/92/25
f 37/85/81 38/88/84 43/93/85
f 39/94/86 43/93/85 111/95/45
f 38/88/84 101/96/18 100/97/17
f 43/93/85 100/97/17 152/98/21
f 37/85/81 39/94/86 44/99/87
f 40/100/88 44/99/87 120/101/65
f 39/94/86 110/102/40 109/103/39
f 44/99/87 109/103/39 153/104/43
f 37/85/81 40/100/88 45/105/89
f 41/86/82 45/105/89 126/106/80
f 40/100/88 119/107/60 118/108/59
f 45/105/89 118/108/59 154/109/63
f 50/110/90 51/111/91 47/112/92
f 47/112/92 51/111/91 114/113/93
f 50/110/90 122/114/94 121/115/95
f 121/115/95 158/116/96 114/113/93
f 47/112/92 52/117/97 48/118/98
f 48/118/98 52/117/97 105/119/99
f 47/112/92 113/120/100 112/121/101
f 112/121/101 157/122/102 105/119/99
f 48/118/98 53/123/103 49/124/104
f 49/124/104 53/123/103 96/125/105
f 48/118/98 104/126/106 103/127/107
f 103/127/107 156/128/108 96/125/105
f 49/124/104 54/129/109 50/110/90
f 50/110/90 54/129/109 123/130/110
f 49/124/104 95/131/111 94/132/112
f 94/132/112 155/133/113 123/130/110
f 59/134/114 60/135/115 56/136/116
f 60/135/115 94/137/112 95/138/111
f 92/139/117 93/140/118 60/135/115
f 93/140/118 155/141/113 94/137/112
f 56/136/116 61/142/119 57/143/120
f 61/142/119 130/144/121 131/145/122
f 95/138/111 96/146/105 61/142/119
f 96/146/105 156/147/108 130/144/121
f 55/148/123 57/143/120 62/149/124
f 62/149/124 139/13/13 140/5/5
f 57/143/120 131/145/122 132/150/125
f 132/150/125 160/14/14 139/13/13
f 55/148/123 58/151/126 63/152/127
f 59/134/114 63/152/127 91/153/128
f 140/5/5 141/4/4 63/152/127
f 141/4/4 159/8/8 91/153/128
f 68/154/129 69/155/130 65/156/131
f 69/155/130 103/157/107 104/158/106
f 131/145/122 130/144/121 69/155/130
f 130/144/121 156/147/108 103/157/107
f 65/159/131 70/160/132 66/161/133
f 70/160/132 133/162/134 134/163/135
f 104/164/106 105/165/99 70/160/132
f 105/165/99 157/166/102 133/162/134
f 64/167/136 66/161/133 71/168/137
f 71/168/137 142/37/35 143/36/30
f 66/161/133 134/163/135 135/169/138
f 135/169/138 161/38/36 142/37/35
f 64/170/136 67/171/139 72/172/140
f 68/154/129 72/172/140 132/150/125
f 143/30/30 144/29/29 72/172/140
f 144/29/29 160/14/14 132/150/125
f 77/173/141 78/174/142 74/175/143
f 78/174/142 112/176/101 113/177/100
f 134/163/135 133/162/134 78/174/142
f 133/162/134 157/166/102 112/176/101
f 74/175/143 79/178/144 75/179/145
f 79/178/144 136/180/146 137/181/147
f 113/177/100 114/182/93 79/178/144
f 114/182/93 158/183/96 136/180/146
f 73/184/148 75/179/145 80/185/149
f 80/185/149 145/59/55 146/54/50
f 75/179/145 137/181/147 138/186/150
f 138/186/150 162/60/56 145/59/55
f 73/184/148 76/187/151 81/188/152
f 77/173/141 81/188/152 135/169/138
f 146/54/50 147/53/49 81/188/152
f 147/53/49 161/38/36 135/169/138
f 86/189/153 87/190/154 83/191/155
f 87/190/154 121/192/95 122/193/94
f 137/181/147 136/180/146 87/190/154
f 136/180/146 158/183/96 121/192/95
f 83/191/155 88/194/156 84/195/157
f 88/194/156 93/140/118 92/139/117
f 122/193/94 123/196/110 88/194/156
f 123/196/110 155/141/113 93/140/118
f 82/197/158 84/195/157 89/198/159
f 89/198/159 148/78/74 149/74/70
f 84/195/157 92/139/117 91/153/128
f 91/153/128 159/8/8 148/78/74
f 82/197/158 85/199/160 90/200/161
f 86/189/153 90/200/161 138/186/150
f 149/74/70 150/73/69 90/200/161
f 150/73/69 162/60/56 138/186/150
f 2/9/9 1/1/1 6/3/3
f 2/9/9 6/3/3 140/5/5
f 6/3/3 5/2/2 129/7/7
f 6/3/3 129/7/7 141/4/4
f 3/11/11 1/1/1 7/10/10
f 98/19/19 3/11/11 97/12/12
f 2/9/9 140/5/5 7/10/10
f 7/10/10 139/13/13 97/12/12
f 1/1/1 3/11/11 4/16/16
f 4/16/16 8/15/15 101/18/18
f 3/11/11 98/19/19 8/15/15
f 8/15/15 99/20/20 100/17/17
f 1/1/1 4/16/16 5/2/2
f 5/2/2 9/22/22 128/6/6
f 4/16/16 101/18/18 9/22/22
f 9/22/22 102/24/24 127/23/23
f 11/201/31 10/26/26 15/28/28
f 11/201/31 15/28/28 143/30/30
f 15/28/28 14/27/27 97/12/12
f 15/28/28 97/12/12 144/29/29
f 12/34/33 10/31/26 16/33/32
f 107/43/41 12/34/33 106/35/34
f 11/32/31 143/36/30 16/33/32
f 16/33/32 142/37/35 106/35/34
f 10/31/26 12/34/33 13/40/38
f 13/40/38 17/39/37 110/42/40
f 12/34/33 107/43/41 17/39/37
f 17/39/37 108/44/42 109/41/39
f 10/26/26 13/46/38 14/27/27
f 14/27/27 18/47/44 98/19/19
f 13/46/38 110/48/40 18/47/44
f 18/47/44 111/49/45 99/20/20
f 20/55/51 19/50/46 24/52/48
f 20/55/51 24/52/48 146/54/50
f 24/52/48 23/51/47 106/35/34
f 24/52/48 106/35/34 147/53/49
f 21/57/53 19/50/46 25/56/52
f 116/65/61 21/57/53 115/58/54
f 20/55/51 146/54/50 25/56/52
f 25/56/52 145/59/55 115/58/54
f 19/50/46 21/57/53 22/62/58
f 22/62/58 26/61/57 119/64/60
f 21/57/53 116/65/61 26/61/57
f 26/61/57 117/66/62 118/63/59
f 19/50/46 22/62/58 23/51/47
f 23/51/47 27/68/64 107/43/41
f 22/62/58 119/64/60 27/68/64
f 27/68/64 120/69/65 108/44/42
f 29/75/71 28/70/66 33/72/68
f 29/75/71 33/72/68 149/74/70
f 33/72/68 32/71/67 115/58/54
f 33/72/68 115/58/54 150/73/69
f 30/77/73 28/70/66 34/76/72
f 128/6/6 30/77/73 129/7/7
f 29/75/71 149/74/70 34/76/72
f 34/76/72 148/78/74 129/7/7
f 28/70/66 30/77/73 31/80/76
f 31/80/76 35/79/75 125/82/78
f 30/77/73 128/6/6 35/79/75
f 35/79/75 127/23/23 124/81/77
f 28/70/66 31/80/76 32/71/67
f 32/71/67 36/83/79 116/65/61
f 31/80/76 125/82/78 36/83/79
f 36/83/79 126/84/80 117/66/62
f 38/88/84 37/85/81 42/87/83
f 101/96/18 38/88/84 102/89/24
f 42/87/83 41/86/82 124/91/77
f 102/89/24 42/87/83 151/92/25
f 39/94/86 37/85/81 43/93/85
f 110/102/40 39/94/86 111/95/45
f 43/93/85 38/88/84 100/97/17
f 111/95/45 43/93/85 152/98/21
f 40/100/88 37/85/81 44/99/87
f 119/107/60 40/100/88 120/101/65
f 44/99/87 39/94/86 109/103/39
f 120/101/65 44/99/87 153/104/43
f 41/86/82 37/85/81 45/105/89
f 125/90/78 41/86/82 126/106/80
f 45/105/89 40/100/88 118/108/59
f 126/106/80 45/105/89 154/109/63
f 46/202/162 50/110/90 47/112/92
f 113/120/100 47/112/92 114/113/93
f 51/111/91 50/110/90 121/115/95
f 51/111/91 121/115/95 114/113/93
f 46/202/162 47/112/92 48/118/98
f 104/126/106 48/118/98 105/119/99
f 52/117/97 47/112/92 112/121/101
f 52/117/97 112/121/101 105/119/99
f 46/202/162 48/118/98 49/124/104
f 95/131/111 49/124/104 96/125/105
f 53/123/103 48/118/98 103/127/107
f 53/123/103 103/127/107 96/125/105
f 46/202/162 49/124/104 50/110/90
f 122/114/94 50/110/90 123/130/110
f 54/129/109 49/124/104 94/132/112
f 54/129/109 94/132/112 123/130/110
f 55/148/123 59/134/114 56/136/116
f 56/136/116 60/135/115 95/138/111
f 59/134/114 92/139/117 60/135/115
f 60/135/115 93/140/118 94/137/112
f 55/148/123 56/136/116 57/143/120
f 57/143/120 61/142/119 131/145/122
f 56/136/116 95/138/111 61/142/119
f 61/142/119 96/146/105 130/144/121
f 58/151/126 55/148/123 62/149/124
f 58/151/126 62/149/124 140/5/5
f 62/149/124 57/143/120 132/150/125
f 62/149/124 132/150/125 139/13/13
f 59/134/114 55/148/123 63/152/127
f 92/139/117 59/134/114 91/153/128
f 58/151/126 140/5/5 63/152/127
f 63/152/127 141/4/4 91/153/128
f 64/170/136 68/154/129 65/156/131
f 65/156/131 69/155/130 104/158/106
f 68/154/129 131/145/122 69/155/130
f 69/155/130 130/144/121 103/157/107
f 64/167/136 65/159/131 66/161/133
f 66/161/133 70/160/132 134/163/135
f 65/159/131 104/164/106 70/160/132
f 70/160/132 105/165/99 133/162/134
f 67/203/139 64/167/136 71/168/137
f 67/203/139 71/168/137 143/36/30
f 71/168/137 66/161/133 135/169/138
f 71/168/137 135/169/138 142/37/35
f 68/154/129 64/170/136 72/172/140
f 131/145/122 68/154/129 132/150/125
f 67/171/139 143/30/30 72/172/140
f 72/172/140 144/29/29 132/150/125
f 73/184/148 77/173/141 74/175/143
f 74/175/143 78/174/142 113/177/100
f 77/173/141 134/163/135 78/174/142
f 78/174/142 133/162/134 112/176/101
f 73/184/148 74/175/143 75/179/145
f 75/179/145 79/178/144 137/181/147
f 74/175/143 113/177/100 79/178/144
f 79/178/144 114/182/93 136/180/146
f 76/187/151 73/184/148 80/185/149
f 76/187/151 80/185/149 146/54/50
f 80/185/149 75/179/145 138/186/150
f 80/185/149 138/186/150 145/59/55
f 77/173/141 73/184/148 81/188/152
f 134/163/135 77/173/141 135/169/138
f 76/187/151 146/54/50 81/188/152
f 81/188/152 147/53/49 135/169/138
f 82/197/158 86/189/153 83/191/155
f 83/191/155 87/190/154 122/193/94
f 86/189/153 137/181/147 87/190/154
f 87/190/154 136/180/146 121/192/95
f 82/197/158 83/191/155 84/195/157
f 84/195/157 88/194/156 92/139/117
f 83/191/155 122/193/94 88/194/156
f 88/194/156 123/196/110 93/140/118
f 85/199/160 82/197/158 89/198/159
f 85/199/160 89/198/159 149/74/70
f 89/198/159 84/195/157 91/153/128
f 89/198/159 91/153/128 148/78/74
f 86/189/153 82/197/158 90/200/161
f 137/181/147 86/189/153 138/186/150
f 85/199/160 149/74/70 90/200/161
f 90/200/161 150/73/69 138/186/150
