# Blender v2.72 (sub 0) OBJ File: 'Person.blend'
# www.blender.org
o Cube
v 0.000000 -0.078473 -0.000000
v 0.350694 -0.019445 -0.000000
v -0.000000 -0.019445 0.350694
v -0.350694 -0.019445 -0.000000
v 0.000000 -0.019445 -0.350695
v 0.326389 0.036111 -0.326389
v 0.326389 0.036111 0.326389
v -0.326389 0.036111 0.326389
v -0.326389 0.036111 -0.326389
v -0.000000 1.678472 0.000000
v 0.000000 1.619444 -0.350694
v -0.350695 1.619444 0.000000
v -0.000000 1.619444 0.350695
v 0.350694 1.619444 0.000000
v 0.326389 1.563889 -0.326389
v -0.326389 1.563889 -0.326389
v -0.326389 1.563889 0.326389
v 0.326389 1.563889 0.326389
v 0.878472 0.800000 0.000000
v 0.819445 0.800000 -0.350694
v 0.819444 1.150694 0.000000
v 0.819444 0.800000 0.350695
v 0.819444 0.449305 0.000000
v 0.763889 0.473611 -0.326389
v 0.763889 1.126389 -0.326389
v 0.763889 1.126389 0.326389
v 0.763889 0.473611 0.326389
v -0.000000 0.800000 0.878472
v 0.350694 0.800000 0.819445
v -0.000000 1.150694 0.819444
v -0.350695 0.800000 0.819444
v -0.000000 0.449305 0.819444
v 0.326389 0.473611 0.763889
v 0.326389 1.126389 0.763889
v -0.326389 1.126389 0.763889
v -0.326389 0.473611 0.763889
v -0.878472 0.800000 -0.000000
v -0.819445 0.800000 0.350694
v -0.819444 1.150694 -0.000000
v -0.819444 0.800000 -0.350695
v -0.819444 0.449305 -0.000000
v -0.763889 0.473611 0.326389
v -0.763889 1.126389 0.326389
v -0.763889 1.126389 -0.326389
v -0.763889 0.473611 -0.326389
v 0.000000 0.800000 -0.878472
v 0.350695 0.800000 -0.819444
v 0.000000 0.449305 -0.819444
v -0.350694 0.800000 -0.819445
v 0.000000 1.150694 -0.819444
v 0.326389 1.126389 -0.763889
v 0.326389 0.473611 -0.763889
v -0.326389 0.473611 -0.763889
v -0.326389 1.126389 -0.763889
v 0.598958 0.201041 -0.302083
v 0.643229 0.156771 0.000000
v 0.598958 0.201041 0.302083
v 0.302083 0.201041 -0.598958
v 0.000000 0.156771 -0.643229
v -0.302083 0.201041 -0.598958
v 0.598958 0.497916 -0.598958
v 0.643229 0.800000 -0.643229
v 0.598958 1.102083 -0.598958
v 0.302083 0.201041 0.598958
v -0.000000 0.156771 0.643229
v -0.302083 0.201041 0.598958
v 0.598958 0.497916 0.598958
v 0.643229 0.800000 0.643229
v 0.598958 1.102083 0.598959
v -0.598958 0.201041 0.302083
v -0.643229 0.156771 -0.000000
v -0.598958 0.201041 -0.302084
v -0.598958 0.497916 0.598958
v -0.643229 0.800000 0.643229
v -0.598959 1.102083 0.598958
v -0.598958 0.497916 -0.598958
v -0.643229 0.800000 -0.643229
v -0.598958 1.102083 -0.598958
v 0.598958 1.398958 -0.302083
v 0.643229 1.443229 0.000000
v 0.598958 1.398958 0.302084
v 0.302083 1.398958 -0.598958
v 0.000000 1.443229 -0.643229
v -0.302083 1.398958 -0.598958
v 0.302083 1.398958 0.598959
v -0.000000 1.443229 0.643229
v -0.302084 1.398958 0.598958
v -0.598958 1.398958 0.302083
v -0.643229 1.443229 -0.000000
v -0.598958 1.398958 -0.302083
v 0.509259 0.290740 -0.509259
v 0.509259 0.290740 0.509259
v -0.509259 0.290740 0.509259
v -0.509259 0.290740 -0.509259
v 0.509259 1.309259 -0.509259
v 0.509259 1.309259 0.509260
v -0.509260 1.309259 0.509259
v -0.509259 1.309259 -0.509259
vt 0.431588 0.812611
vt 0.400910 0.808233
vt 0.402018 0.777263
vt 0.369007 0.806245
vt 0.369007 0.774326
vt 0.428651 0.845621
vt 0.397233 0.839985
vt 0.372964 0.831612
vt 0.406395 0.746585
vt 0.437365 0.747693
vt 0.408383 0.714682
vt 0.440302 0.714682
vt 0.374643 0.742908
vt 0.383016 0.718639
vt 0.468044 0.752071
vt 0.466935 0.783040
vt 0.499946 0.754058
vt 0.499946 0.785977
vt 0.471720 0.720318
vt 0.495990 0.728691
vt 0.462558 0.813719
vt 0.460570 0.845621
vt 0.494310 0.817395
vt 0.485937 0.841665
vt 0.270971 0.777263
vt 0.275349 0.746585
vt 0.306318 0.747693
vt 0.277336 0.714682
vt 0.309256 0.714682
vt 0.237960 0.774326
vt 0.243596 0.742908
vt 0.251970 0.718639
vt 0.336997 0.752071
vt 0.335889 0.783040
vt 0.368900 0.754058
vt 0.368900 0.785978
vt 0.340673 0.720318
vt 0.364943 0.728692
vt 0.331511 0.813719
vt 0.300542 0.812611
vt 0.329523 0.845621
vt 0.297604 0.845621
vt 0.363263 0.817395
vt 0.354890 0.841665
vt 0.269863 0.808233
vt 0.237960 0.806245
vt 0.266186 0.839985
vt 0.241917 0.831612
vt 0.004237 0.882032
vt 0.038554 0.888901
vt 0.037582 0.921584
vt 0.069542 0.893238
vt 0.069103 0.921595
vt 0.013702 0.845729
vt 0.046039 0.855872
vt 0.070815 0.867563
vt 0.038532 0.954268
vt 0.004209 0.961113
vt 0.045994 0.987302
vt 0.013649 0.997422
vt 0.069523 0.949951
vt 0.070778 0.975628
vt 0.495764 0.961282
vt 0.461446 0.954413
vt 0.462419 0.921731
vt 0.430459 0.950076
vt 0.430898 0.921720
vt 0.486299 0.997585
vt 0.453961 0.987442
vt 0.429186 0.975751
vt 0.461469 0.889047
vt 0.495791 0.882203
vt 0.454007 0.856014
vt 0.486351 0.845893
vt 0.430479 0.893363
vt 0.429223 0.867687
vt 0.369651 0.889536
vt 0.400321 0.891662
vt 0.401003 0.921709
vt 0.369361 0.855421
vt 0.403121 0.858861
vt 0.400300 0.951756
vt 0.369629 0.953861
vt 0.403077 0.984559
vt 0.369315 0.987976
vt 0.339164 0.951314
vt 0.338805 0.921688
vt 0.309738 0.948908
vt 0.309763 0.921678
vt 0.335624 0.983937
vt 0.309685 0.974428
vt 0.339185 0.892062
vt 0.335667 0.859436
vt 0.309757 0.894447
vt 0.309721 0.868927
vt 0.250012 0.889737
vt 0.280360 0.892130
vt 0.280775 0.921668
vt 0.250024 0.855720
vt 0.283739 0.859523
vt 0.280339 0.951205
vt 0.249990 0.953577
vt 0.283696 0.983815
vt 0.249979 0.987594
vt 0.219643 0.951184
vt 0.219227 0.921647
vt 0.190245 0.948867
vt 0.190240 0.921637
vt 0.216264 0.983792
vt 0.190281 0.974387
vt 0.219663 0.892109
vt 0.216307 0.859499
vt 0.190264 0.894406
vt 0.190317 0.868886
vt 0.130351 0.953779
vt 0.099681 0.951652
vt 0.098999 0.921605
vt 0.130641 0.987894
vt 0.096881 0.984454
vt 0.099702 0.891558
vt 0.130373 0.889453
vt 0.096924 0.858754
vt 0.130687 0.855338
vt 0.160838 0.892001
vt 0.161197 0.921627
vt 0.164378 0.859377
vt 0.160817 0.951252
vt 0.164335 0.983879
vt 0.434477 0.780152
vt 0.303430 0.780152
vt 0.000054 0.921571
vt 0.499946 0.921744
vt 0.369786 0.921699
vt 0.250001 0.921657
vt 0.130215 0.921616
vn 0.000000 -0.936200 -0.351500
vn 0.344800 -0.873000 -0.344800
vn 0.351500 -0.936200 0.000000
vn 0.664100 -0.664100 -0.343300
vn 0.707100 -0.707100 0.000000
vn 0.000000 -0.707100 -0.707100
vn 0.343300 -0.664100 -0.664100
vn 0.577300 -0.577300 -0.577300
vn 0.344800 -0.873000 0.344800
vn 0.000000 -0.936200 0.351500
vn 0.343300 -0.664100 0.664100
vn 0.000000 -0.707100 0.707100
vn 0.664100 -0.664100 0.343300
vn 0.577300 -0.577300 0.577300
vn -0.344800 -0.873000 0.344800
vn -0.351500 -0.936200 0.000000
vn -0.664100 -0.664100 0.343300
vn -0.707100 -0.707100 0.000000
vn -0.343300 -0.664100 0.664100
vn -0.577300 -0.577300 0.577300
vn -0.344800 -0.873000 -0.344800
vn -0.343300 -0.664100 -0.664100
vn -0.664100 -0.664100 -0.343300
vn -0.577300 -0.577300 -0.577300
vn 0.351500 0.936200 0.000000
vn 0.344800 0.873000 -0.344800
vn 0.000000 0.936200 -0.351500
vn 0.343300 0.664100 -0.664100
vn 0.000000 0.707100 -0.707100
vn 0.707100 0.707100 0.000000
vn 0.664100 0.664100 -0.343300
vn 0.577300 0.577300 -0.577300
vn -0.344800 0.873000 -0.344800
vn -0.351500 0.936200 0.000000
vn -0.664100 0.664100 -0.343300
vn -0.707100 0.707100 0.000000
vn -0.343300 0.664100 -0.664100
vn -0.577300 0.577300 -0.577300
vn -0.344800 0.873000 0.344800
vn 0.000000 0.936200 0.351500
vn -0.343300 0.664100 0.664100
vn 0.000000 0.707100 0.707100
vn -0.664100 0.664100 0.343300
vn -0.577300 0.577300 0.577300
vn 0.344800 0.873000 0.344800
vn 0.664100 0.664100 0.343300
vn 0.343300 0.664100 0.664100
vn 0.577300 0.577300 0.577300
vn 0.936200 -0.351500 0.000000
vn 0.873000 -0.344800 -0.344800
vn 0.936200 0.000000 -0.351500
vn 0.664100 -0.343300 -0.664100
vn 0.707100 0.000000 -0.707100
vn 0.873000 0.344800 -0.344800
vn 0.936200 0.351500 0.000000
vn 0.664100 0.343300 -0.664100
vn 0.873000 0.344800 0.344800
vn 0.936200 0.000000 0.351500
vn 0.664100 0.343300 0.664100
vn 0.707100 0.000000 0.707100
vn 0.873000 -0.344800 0.344800
vn 0.664100 -0.343300 0.664100
vn 0.000000 -0.351500 0.936200
vn 0.344800 -0.344800 0.873000
vn 0.351500 0.000000 0.936200
vn 0.344800 0.344800 0.873000
vn 0.000000 0.351500 0.936200
vn -0.344800 0.344800 0.873000
vn -0.351500 0.000000 0.936200
vn -0.664100 0.343300 0.664100
vn -0.707100 0.000000 0.707100
vn -0.344800 -0.344800 0.873000
vn -0.664100 -0.343300 0.664100
vn -0.936200 -0.351500 0.000000
vn -0.873000 -0.344800 0.344800
vn -0.936200 0.000000 0.351500
vn -0.873000 0.344800 0.344800
vn -0.936200 0.351500 0.000000
vn -0.873000 0.344800 -0.344800
vn -0.936200 0.000000 -0.351500
vn -0.664100 0.343300 -0.664100
vn -0.707100 0.000000 -0.707100
vn -0.873000 -0.344800 -0.344800
vn -0.664100 -0.343300 -0.664100
vn 0.000000 0.351500 -0.936200
vn 0.344800 0.344800 -0.873000
vn 0.351500 0.000000 -0.936200
vn 0.344800 -0.344800 -0.873000
vn 0.000000 -0.351500 -0.936200
vn -0.344800 -0.344800 -0.873000
vn -0.351500 0.000000 -0.936200
vn -0.344800 0.344800 -0.873000
vn 0.000000 -1.000000 0.000000
vn 0.000000 1.000000 0.000000
vn 1.000000 0.000000 0.000000
vn 0.000000 0.000000 1.000000
vn -1.000000 0.000000 0.000000
vn 0.000000 0.000000 -1.000000
s 1
f 5/1/1 6/2/2 2/3/3
f 6/2/2 55/4/4 56/5/5
f 59/6/6 58/7/7 6/2/2
f 58/7/7 91/8/8 55/4/4
f 2/3/3 7/9/9 3/10/10
f 7/9/9 64/11/11 65/12/12
f 56/5/5 57/13/13 7/9/9
f 57/13/13 92/14/14 64/11/11
f 3/10/10 8/15/15 4/16/16
f 8/15/15 70/17/17 71/18/18
f 65/12/12 66/19/19 8/15/15
f 66/19/19 93/20/20 70/17/17
f 4/16/16 9/21/21 5/1/1
f 9/21/21 60/22/22 59/6/6
f 71/18/18 72/23/23 9/21/21
f 72/23/23 94/24/24 60/22/22
f 14/25/25 15/26/26 11/27/27
f 15/26/26 82/28/28 83/29/29
f 80/30/30 79/31/31 15/26/26
f 79/31/31 95/32/32 82/28/28
f 11/27/27 16/33/33 12/34/34
f 16/33/33 90/35/35 89/36/36
f 83/29/29 84/37/37 16/33/33
f 84/37/37 98/38/38 90/35/35
f 12/34/34 17/39/39 13/40/40
f 17/39/39 87/41/41 86/42/42
f 89/36/36 88/43/43 17/39/39
f 88/43/43 97/44/44 87/41/41
f 13/40/40 18/45/45 14/25/25
f 18/45/45 81/46/46 80/30/30
f 86/42/42 85/47/47 18/45/45
f 85/47/47 96/48/48 81/46/46
f 23/49/49 24/50/50 20/51/51
f 24/50/50 61/52/52 62/53/53
f 56/54/5 55/55/4 24/50/50
f 55/55/4 91/56/8 61/52/52
f 20/51/51 25/57/54 21/58/55
f 25/57/54 79/59/31 80/60/30
f 62/53/53 63/61/56 25/57/54
f 63/61/56 95/62/32 79/59/31
f 21/63/55 26/64/57 22/65/58
f 26/64/57 69/66/59 68/67/60
f 80/68/30 81/69/46 26/64/57
f 81/69/46 96/70/48 69/66/59
f 22/65/58 27/71/61 23/72/49
f 27/71/61 57/73/13 56/74/5
f 68/67/60 67/75/62 27/71/61
f 67/75/62 92/76/14 57/73/13
f 32/77/63 33/78/64 29/79/65
f 33/78/64 67/75/62 68/67/60
f 65/80/12 64/81/11 33/78/64
f 64/81/11 92/76/14 67/75/62
f 29/79/65 34/82/66 30/83/67
f 34/82/66 85/84/47 86/85/42
f 68/67/60 69/66/59 34/82/66
f 69/66/59 96/70/48 85/84/47
f 30/83/67 35/86/68 31/87/69
f 35/86/68 75/88/70 74/89/71
f 86/85/42 87/90/41 35/86/68
f 87/90/41 97/91/44 75/88/70
f 31/87/69 36/92/72 32/77/63
f 36/92/72 66/93/19 65/80/12
f 74/89/71 73/94/73 36/92/72
f 73/94/73 93/95/20 66/93/19
f 41/96/74 42/97/75 38/98/76
f 42/97/75 73/94/73 74/89/71
f 71/99/18 70/100/17 42/97/75
f 70/100/17 93/95/20 73/94/73
f 38/98/76 43/101/77 39/102/78
f 43/101/77 88/103/43 89/104/36
f 74/89/71 75/88/70 43/101/77
f 75/88/70 97/91/44 88/103/43
f 39/102/78 44/105/79 40/106/80
f 44/105/79 78/107/81 77/108/82
f 89/104/36 90/109/35 44/105/79
f 90/109/35 98/110/38 78/107/81
f 40/106/80 45/111/83 41/96/74
f 45/111/83 72/112/23 71/99/18
f 77/108/82 76/113/84 45/111/83
f 76/113/84 94/114/24 72/112/23
f 50/115/85 51/116/86 47/117/87
f 51/116/86 63/61/56 62/53/53
f 83/118/29 82/119/28 51/116/86
f 82/119/28 95/62/32 63/61/56
f 47/117/87 52/120/88 48/121/89
f 52/120/88 58/122/7 59/123/6
f 62/53/53 61/52/52 52/120/88
f 61/52/52 91/56/8 58/122/7
f 48/121/89 53/124/90 49/125/91
f 53/124/90 76/113/84 77/108/82
f 59/123/6 60/126/22 53/124/90
f 60/126/22 94/114/24 76/113/84
f 49/125/91 54/127/92 50/115/85
f 54/127/92 84/128/37 83/118/29
f 77/108/82 78/107/81 54/127/92
f 78/107/81 98/110/38 84/128/37
f 1/129/93 5/1/1 2/3/3
f 2/3/3 6/2/2 56/5/5
f 5/1/1 59/6/6 6/2/2
f 6/2/2 58/7/7 55/4/4
f 1/129/93 2/3/3 3/10/10
f 3/10/10 7/9/9 65/12/12
f 2/3/3 56/5/5 7/9/9
f 7/9/9 57/13/13 64/11/11
f 1/129/93 3/10/10 4/16/16
f 4/16/16 8/15/15 71/18/18
f 3/10/10 65/12/12 8/15/15
f 8/15/15 66/19/19 70/17/17
f 1/129/93 4/16/16 5/1/1
f 5/1/1 9/21/21 59/6/6
f 4/16/16 71/18/18 9/21/21
f 9/21/21 72/23/23 60/22/22
f 10/130/94 14/25/25 11/27/27
f 11/27/27 15/26/26 83/29/29
f 14/25/25 80/30/30 15/26/26
f 15/26/26 79/31/31 82/28/28
f 10/130/94 11/27/27 12/34/34
f 12/34/34 16/33/33 89/36/36
f 11/27/27 83/29/29 16/33/33
f 16/33/33 84/37/37 90/35/35
f 10/130/94 12/34/34 13/40/40
f 13/40/40 17/39/39 86/42/42
f 12/34/34 89/36/36 17/39/39
f 17/39/39 88/43/43 87/41/41
f 10/130/94 13/40/40 14/25/25
f 14/25/25 18/45/45 80/30/30
f 13/40/40 86/42/42 18/45/45
f 18/45/45 85/47/47 81/46/46
f 19/131/95 23/49/49 20/51/51
f 20/51/51 24/50/50 62/53/53
f 23/49/49 56/54/5 24/50/50
f 24/50/50 55/55/4 61/52/52
f 19/131/95 20/51/51 21/58/55
f 21/58/55 25/57/54 80/60/30
f 20/51/51 62/53/53 25/57/54
f 25/57/54 63/61/56 79/59/31
f 19/132/95 21/63/55 22/65/58
f 22/65/58 26/64/57 68/67/60
f 21/63/55 80/68/30 26/64/57
f 26/64/57 81/69/46 69/66/59
f 19/132/95 22/65/58 23/72/49
f 23/72/49 27/71/61 56/74/5
f 22/65/58 68/67/60 27/71/61
f 27/71/61 67/75/62 57/73/13
f 28/133/96 32/77/63 29/79/65
f 29/79/65 33/78/64 68/67/60
f 32/77/63 65/80/12 33/78/64
f 33/78/64 64/81/11 67/75/62
f 28/133/96 29/79/65 30/83/67
f 30/83/67 34/82/66 86/85/42
f 29/79/65 68/67/60 34/82/66
f 34/82/66 69/66/59 85/84/47
f 28/133/96 30/83/67 31/87/69
f 31/87/69 35/86/68 74/89/71
f 30/83/67 86/85/42 35/86/68
f 35/86/68 87/90/41 75/88/70
f 28/133/96 31/87/69 32/77/63
f 32/77/63 36/92/72 65/80/12
f 31/87/69 74/89/71 36/92/72
f 36/92/72 73/94/73 66/93/19
f 37/134/97 41/96/74 38/98/76
f 38/98/76 42/97/75 74/89/71
f 41/96/74 71/99/18 42/97/75
f 42/97/75 70/100/17 73/94/73
f 37/134/97 38/98/76 39/102/78
f 39/102/78 43/101/77 89/104/36
f 38/98/76 74/89/71 43/101/77
f 43/101/77 75/88/70 88/103/43
f 37/134/97 39/102/78 40/106/80
f 40/106/80 44/105/79 77/108/82
f 39/102/78 89/104/36 44/105/79
f 44/105/79 90/109/35 78/107/81
f 37/134/97 40/106/80 41/96/74
f 41/96/74 45/111/83 71/99/18
f 40/106/80 77/108/82 45/111/83
f 45/111/83 76/113/84 72/112/23
f 46/135/98 50/115/85 47/117/87
f 47/117/87 51/116/86 62/53/53
f 50/115/85 83/118/29 51/116/86
f 51/116/86 82/119/28 63/61/56
f 46/135/98 47/117/87 48/121/89
f 48/121/89 52/120/88 59/123/6
f 47/117/87 62/53/53 52/120/88
f 52/120/88 61/52/52 58/122/7
f 46/135/98 48/121/89 49/125/91
f 49/125/91 53/124/90 77/108/82
f 48/121/89 59/123/6 53/124/90
f 53/124/90 60/126/22 76/113/84
f 46/135/98 49/125/91 50/115/85
f 50/115/85 54/127/92 83/118/29
f 49/125/91 77/108/82 54/127/92
f 54/127/92 78/107/81 84/128/37
