# Blender v2.72 (sub 0) OBJ File: 'house.blend'
# www.blender.org
o Cube
v 2.000000 0.000000 -1.000000
v 2.000000 0.000000 1.000000
v -2.000000 0.000000 1.000000
v -1.999999 0.000000 -1.000000
v 2.000001 2.000000 -0.999999
v 1.999999 2.000000 1.000001
v -2.000001 2.000000 1.000000
v -2.000000 2.000000 -1.000000
v 2.000000 3.000000 0.000001
v -2.000000 3.000000 -0.000000
vt 0.499965 0.250035
vt 0.499965 0.500000
vt 0.000035 0.500000
vt 0.666653 0.000041
vt 0.666653 0.166694
vt 0.500000 0.166694
vt 0.500000 0.000041
vt 0.166694 0.166694
vt 0.000041 0.166694
vt 0.000041 0.000041
vt 0.999959 0.000041
vt 0.562910 0.525000
vt 0.987090 0.525000
vt 0.775000 0.737090
vt 0.499958 0.625042
vt 0.499958 0.801789
vt 0.000042 0.801789
vt 0.499958 0.978536
vt 0.000042 0.978536
vt 0.555226 0.754678
vt 0.995164 0.754678
vt 0.775195 0.974647
vt 0.000035 0.250035
vt 0.166694 0.000041
vt 0.999959 0.166694
vt 0.000042 0.625042
vn 0.000000 -1.000000 0.000000
vn 1.000000 -0.000000 0.000000
vn -0.000000 -0.000000 1.000000
vn -1.000000 -0.000000 -0.000000
vn 0.000000 0.000000 -1.000000
vn -0.000000 0.707100 0.707100
vn 0.000000 0.707100 -0.707100
s off
f 1/1/1 2/2/1 3/3/1
f 1/4/2 5/5/2 6/6/2
f 2/7/3 6/6/3 7/8/3
f 7/8/4 8/9/4 4/10/4
f 5/5/5 1/4/5 4/11/5
f 8/12/4 7/13/4 10/14/4
f 6/15/6 9/16/6 10/17/6
f 5/18/7 8/19/7 10/17/7
f 6/20/2 5/21/2 9/22/2
f 4/23/1 1/1/1 3/3/1
f 2/7/2 1/4/2 6/6/2
f 3/24/3 2/7/3 7/8/3
f 3/24/4 7/8/4 4/10/4
f 8/25/5 5/5/5 4/11/5
f 7/26/6 6/15/6 10/17/6
f 9/16/7 5/18/7 10/17/7
