# Blender v2.72 (sub 0) OBJ File: 'pencil.blend'
# www.blender.org
o Cylinder
v 1.000000 0.000000 0.100000
v -1.000000 -0.000000 0.100000
v 1.000000 -0.086602 0.050000
v -1.000000 -0.086603 0.050000
v 1.000000 -0.086602 -0.050000
v -1.000000 -0.086603 -0.050000
v 1.000000 0.000000 -0.100000
v -1.000000 -0.000000 -0.100000
v 1.000000 0.086603 -0.050000
v -1.000000 0.086602 -0.050000
v 1.000000 0.086603 0.050000
v -1.000000 0.086602 0.050000
v -1.300000 -0.000000 -0.000000
vt 0.087229 0.864958
vt 0.000000 0.870256
vt 0.000000 0.005298
vt 0.697831 0.870256
vt 0.610602 0.864958
vt 0.610602 0.000000
vt 0.436144 0.864958
vt 0.436144 0.000000
vt 0.348916 0.870256
vt 0.348915 0.005298
vt 0.261686 0.864958
vt 0.087229 0.000000
vt 0.261687 0.000000
vt 0.848915 0.313313
vt 0.697831 0.234160
vt 0.697831 0.075853
vt 0.174457 1.000000
vt 0.523373 1.000000
vt 0.697830 0.005298
vt 0.848915 -0.003300
vt 1.000000 0.075853
vt 1.000000 0.234160
vn -0.000000 -0.500000 0.866000
vn 0.000000 -1.000000 0.000000
vn 0.000000 -0.500000 -0.866000
vn 0.000000 0.500000 -0.866000
vn -0.000000 0.500000 0.866000
vn -0.000000 1.000000 0.000000
vn 1.000000 0.000000 0.000000
vn -0.277400 0.480400 0.832000
vn -0.277400 0.960800 0.000000
vn -0.277300 0.480400 -0.832000
vn -0.277300 -0.480400 -0.832100
vn -0.277300 -0.960800 0.000000
vn -0.277300 -0.480400 0.832100
s off
f 2/1/1 4/2/1 3/3/1
f 4/4/2 6/5/2 5/6/2
f 6/5/3 8/7/3 7/8/3
f 8/7/4 10/9/4 9/10/4
f 12/11/5 2/1/5 1/12/5
f 10/9/6 12/11/6 11/13/6
f 5/14/7 7/15/7 9/16/7
f 2/1/8 12/11/8 13/17/8
f 12/11/9 10/9/9 13/17/9
f 10/9/10 8/7/10 13/18/10
f 8/7/11 6/5/11 13/18/11
f 6/5/12 4/4/12 13/18/12
f 4/2/13 2/1/13 13/17/13
f 1/12/1 2/1/1 3/3/1
f 3/19/2 4/4/2 5/6/2
f 5/6/3 6/5/3 7/8/3
f 7/8/4 8/7/4 9/10/4
f 11/13/5 12/11/5 1/12/5
f 9/10/6 10/9/6 11/13/6
f 9/16/7 11/20/7 1/21/7
f 5/14/7 9/16/7 3/22/7
f 9/16/7 1/21/7 3/22/7
