# Blender v2.72 (sub 0) OBJ File: 'sheet.blend'
# www.blender.org
o Cube
v 1.000000 -0.010000 -0.600000
v 1.000000 -0.010000 0.600000
v -1.000000 -0.010000 0.600000
v -1.000000 -0.010000 -0.600000
v 1.000000 0.010000 -0.600000
v 0.999999 0.010000 0.600000
v -1.000000 0.010000 0.600000
v -1.000000 0.010000 -0.600000
v 0.990000 0.010000 -0.590000
v 0.989999 0.010000 0.590000
v -0.990000 0.010000 -0.590000
v -0.990000 0.010000 0.590000
v 0.990000 -0.010000 -0.590000
v 0.990000 -0.010000 0.590000
v -0.990000 -0.010000 -0.590000
v -0.990000 -0.010000 0.590000
vt 0.497942 0.004167
vt 0.983539 0.004167
vt 0.983539 0.829166
vt 0.489712 0.004167
vt 0.489712 0.829167
vt 0.004115 0.829166
vt 1.000000 1.000000
vt 0.995885 1.000000
vt 0.995885 0.500000
vt 0.995885 0.833333
vt 0.991769 0.833333
vt 0.991769 0.000000
vt 0.995885 0.000000
vt 1.000000 0.000000
vt 0.987654 0.833333
vt 0.004115 0.004167
vt 0.000000 0.000000
vt 0.493827 0.000000
vt 0.493827 0.833333
vt 0.000000 0.833333
vt 0.987654 0.000000
vt 0.497942 0.829166
vt 1.000000 0.500000
vn 0.000000 -1.000000 0.000000
vn 0.000000 1.000000 0.000000
vn 1.000000 -0.000000 0.000000
vn -0.000000 -0.000000 1.000000
vn -1.000000 -0.000000 -0.000000
vn 0.000000 0.000000 -1.000000
s off
f 13/1/1 14/2/1 16/3/1
f 9/4/2 11/5/2 12/6/2
f 1/7/3 5/8/3 6/9/3
f 2/10/4 6/11/4 7/12/4
f 7/9/5 8/13/5 4/14/5
f 1/12/6 4/11/6 8/15/6
f 10/16/2 6/17/2 5/18/2
f 9/4/2 5/18/2 8/19/2
f 12/6/2 7/20/2 6/17/2
f 11/5/2 8/19/2 7/20/2
f 13/1/1 1/18/1 2/21/1
f 15/22/1 4/19/1 1/18/1
f 14/2/1 2/21/1 3/15/1
f 16/3/1 3/15/1 4/19/1
f 15/22/1 13/1/1 16/3/1
f 10/16/2 9/4/2 12/6/2
f 2/23/3 1/7/3 6/9/3
f 3/13/4 2/10/4 7/12/4
f 3/23/5 7/9/5 4/14/5
f 5/21/6 1/12/6 8/15/6
f 9/4/2 10/16/2 5/18/2
f 11/5/2 9/4/2 8/19/2
f 10/16/2 12/6/2 6/17/2
f 12/6/2 11/5/2 7/20/2
f 14/2/1 13/1/1 2/21/1
f 13/1/1 15/22/1 1/18/1
f 16/3/1 14/2/1 3/15/1
f 15/22/1 16/3/1 4/19/1
