# Blender v2.72 (sub 0) OBJ File: 'triangle.blend'
# www.blender.org
o Plane
v 0.799869 0.000960 0.336640
v -0.799869 0.000960 0.336640
v -0.000000 0.000960 -0.463229
v 0.759875 0.009040 0.323309
v -0.759875 0.009040 0.323309
v -0.000000 0.009040 -0.436567
vt 0.500014 1.000000
vt 0.000000 0.500000
vt 0.500014 0.000000
vt 0.991720 0.025000
vt 0.991720 0.975000
vt 0.516733 0.500000
vt 1.000000 0.000000
vt 1.000000 1.000000
vt 0.500014 0.500000
vn 0.000000 -1.000000 0.000000
vn 0.000000 1.000000 0.000000
vn -0.278500 0.919100 -0.278500
vn 0.278500 0.919100 -0.278500
vn 0.000000 0.855200 0.518300
s off
f 2/1/1 3/2/1 1/3/1
f 5/4/2 4/5/2 6/6/2
f 2/7/3 5/4/3 6/6/3
f 1/8/4 3/9/4 6/6/4
f 2/7/5 1/8/5 4/5/5
f 3/9/3 2/7/3 6/6/3
f 4/5/4 1/8/4 6/6/4
f 5/4/5 2/7/5 4/5/5
